<?xml version="1.0" encoding="utf-8"?>
<!-- Generator: Adobe Illustrator 16.0.0, SVG Export Plug-In . SVG Version: 6.00 Build 0)  -->
<!DOCTYPE svg PUBLIC "-//W3C//DTD SVG 1.1//EN" "http://www.w3.org/Graphics/SVG/1.1/DTD/svg11.dtd">
<svg version="1.1" id="Layer_1" xmlns="http://www.w3.org/2000/svg" xmlns:xlink="http://www.w3.org/1999/xlink" x="0px" y="0px"
	 width="141.73px" height="141.73px" viewBox="0 0 141.73 141.73" enable-background="new 0 0 141.73 141.73" xml:space="preserve">
<g>
	<path d="M76.641,29.021c-2.648,2.478-3.971,5.552-3.971,9.223c0,1.111,0.17,2.754,0.512,4.932s0.514,3.823,0.514,4.932
		c0,1.197-0.279,2.456-0.833,3.779c-0.557,1.325-1.133,2.584-1.729,3.779v0.897c-1.025,0.769-1.537,2.392-1.537,4.868
		c0,0.854-0.512,2.007-1.537,3.458c-0.769,1.111-1.517,2.222-2.242,3.331c-0.727,1.111-1.901,4.271-3.522,9.479
		c-1.624,5.21-2.434,8.326-2.434,9.352c0,0.256,0.042,0.62,0.128,1.089c0.084,0.47,0.128,0.832,0.128,1.089
		c0,0.854-0.812,2.626-2.434,5.315c-1.623,2.69-2.434,4.676-2.434,5.957c-0.086,0.172-0.172,0.384-0.256,0.64
		c-0.428,0.429-1.024,1.069-1.793,1.922c-0.513,1.11-1.153,2.818-1.922,5.124c0.084,0.256,0.192,0.748,0.32,1.473
		c0.128,0.727,0.192,1.261,0.192,1.602c0,0.256-0.172,0.641-0.513,1.152c-0.854,1.453-1.623,2.393-2.306,2.818
		c-0.685,0.429-1.837,0.641-3.458,0.641c-0.854,0-1.623,0-2.306,0c-0.599,0.597-1.111,0.896-1.537,0.896
		c-0.342,0-0.685-0.258-1.025-0.771c-0.342-0.515-0.685-0.772-1.024-0.772c-0.256-0.513-0.407-1.263-0.449-2.25
		c-0.044-0.984-0.32-3.128-0.833-6.429c-0.512-3.3-0.896-5.208-1.153-5.722c-0.599-1.63-0.896-2.7-0.896-3.215v-1.287
		c-0.428-1.541-0.812-3.856-1.153-6.943v-0.898l0.896-1.287c-0.172-0.94-0.47-2.397-0.896-4.371
		c-0.513,1.193-0.769,3.064-0.769,5.614c0,1.447-0.813,3.488-2.434,6.127c-1.623,2.638-2.434,4.635-2.434,5.996
		c0,0.341-0.342,0.809-1.025,1.403c-1.111,1.021-2.094,3.062-2.946,6.124l0.384,2.809c0.084,0.084,0.128,0.254,0.128,0.51
		c0,1.021-0.705,2.022-2.114,2.999c-1.409,0.979-2.67,1.467-3.779,1.467c-0.769,0-1.623,0-2.562,0
		c-0.599,0.597-1.111,0.896-1.537,0.896c-0.342,0-0.685-0.258-1.025-0.769c-0.342-0.513-0.62-0.812-0.833-0.898
		c-0.214-0.084-0.599-1.625-1.153-4.619c-0.556-2.994-0.896-4.748-1.025-5.261c-0.128-0.512-0.192-1.455-0.192-2.823
		c0-0.597-0.214-1.346-0.641-2.244c-0.428-0.898-0.641-1.647-0.641-2.246c0-0.342,0.042-0.771,0.128-1.282c0-0.513,0-0.899,0-1.155
		c0-0.685-0.214-1.604-0.641-2.758c-0.428-1.155-0.641-2.075-0.641-2.76c0-0.427,0.298-1.325,0.897-2.694
		c0-0.599-0.128-1.711-0.384-3.337c-0.172-1.366-0.256-2.478-0.256-3.334s-0.3-2.054-0.896-3.593
		c-0.599-1.539-0.897-2.736-0.897-3.593c0-0.342,0.084-0.877,0.256-1.605c0.17-0.727,0.256-1.303,0.256-1.731
		s-0.192-1.091-0.577-1.99c-0.384-0.896-0.576-1.603-0.576-2.115c0-0.256,0.042-0.749,0.128-1.477
		c0.084-0.727,0.128-1.261,0.128-1.604l-0.128-1.027c-0.769-1.024-1.153-1.495-1.153-1.411c0-0.17,0.128-0.471,0.384-0.899
		c0.426-1.709,0.596-2.95,0.512-3.721l0.256-0.384l0.128-0.898c0-0.855-0.064-2.074-0.192-3.657
		c-0.128-1.582-0.192-2.758-0.192-3.529c0-2.736,1.365-5.73,4.099-8.981c-0.172,1.367-0.256,2.392-0.256,3.075
		c0,0.94,0.17,1.409,0.513,1.409c0.683,0,2.005-1.835,3.971-5.508c1.195-2.22,2.39-4.483,3.587-6.789
		c1.109-1.537,2.818-2.988,5.124-4.355c-1.111,1.111-2.157,3.267-3.138,6.469c-0.983,3.203-1.473,5.7-1.473,7.494
		s0.426,2.69,1.281,2.69c0.682,0,1.537-0.468,2.562-1.409c0.34,1.197,0.513,2.35,0.513,3.458c0,2.135-1.069,5.508-3.203,10.12
		l0.256,2.946c0.084,0,0.128-0.042,0.128-0.128c-0.342,0.769-0.556,2.007-0.64,3.715c0.084,2.136,0.042,5.338-0.128,9.606
		c-0.172,0.43-0.428,1.153-0.769,2.179v0.128c-0.086,0.342-0.128,0.685-0.128,1.024c0,0.769,0.276,1.857,0.833,3.267
		c0.555,1.409,0.833,2.456,0.833,3.139c0,0.512-0.128,1.238-0.384,2.178c-0.256,0.94-0.384,1.665-0.384,2.177
		c0,0.429,0.128,1.069,0.384,1.922c0.256,0.854,0.384,1.495,0.384,1.921c0,0.343-0.108,0.855-0.32,1.538
		c-0.214,0.684-0.32,1.196-0.32,1.537c0,0.256,0,0.598,0,1.024c0.853-2.05,1.707-4.1,2.562-6.148
		c1.025-2.476,1.537-4.567,1.537-6.277l-0.128-0.256c0.17-1.793,0.577-3.671,1.217-5.636c0.641-1.964,0.961-4.1,0.961-6.405
		c0-0.938,0.34-2.133,1.025-3.586c0.853-1.877,1.323-3.074,1.409-3.587v-0.64c-0.086-0.853,0.426-2.39,1.537-4.612
		c-0.684-3.415-1.024-6.062-1.024-7.942c0-4.099,2.306-8.282,6.917-12.553c-1.025,1.453-1.537,3.375-1.537,5.764
		c0,2.222,0.769,3.331,2.306,3.331c1.025-2.902,2.39-5.124,4.099-6.661c0.17,2.222,0.554,3.331,1.153,3.331
		c0.853,0,1.75-1.195,2.69-3.586c0.769-2.05,1.153-3.587,1.153-4.612c0-1.024,0.042-2.562,0.128-4.611
		c0.084-2.049,0.128-3.586,0.128-4.611c0.17,1.879,0.811,5.21,1.921,9.992c1.025,4.271,1.537,7.644,1.537,10.119
		c0,3.247-0.685,6.235-2.049,8.967c-0.256,0.513-0.813,1.197-1.666,2.05c0.17,0.428,0.256,1.153,0.256,2.177
		c0,6.491-0.172,11.145-0.512,13.962c-0.256,0.43-0.557,1.111-0.897,2.05v0.257c-0.086,0.256-0.128,0.557-0.128,0.896
		c0,0.769,0.276,1.901,0.833,3.395c0.554,1.495,0.833,2.67,0.833,3.522c0,0.429-0.128,1.024-0.384,1.794
		c-0.256,0.769-0.384,1.366-0.384,1.793c0,0.513,0.128,1.217,0.384,2.113c0.256,0.896,0.384,1.602,0.384,2.113
		c0,0.429-0.108,1.089-0.32,1.986c-0.214,0.896-0.32,1.601-0.32,2.113c1.281-2.562,2.562-6.062,3.843-10.504
		c0.256-2.818,0.938-5.977,2.049-9.479c0.084-0.256,0.128-1.877,0.128-4.867c0-0.426,0.746-2.626,2.241-6.597
		c1.493-3.971,2.37-6.212,2.626-6.725l-0.128-0.128c-0.172-0.683-0.256-2.22-0.256-4.611c0-2.134,0.725-3.715,2.178-4.74
		c2.05-1.451,3.245-2.562,3.587-3.33c0,3.417,0.64,5.124,1.921,5.124c0.853,0,1.685-0.576,2.498-1.729
		c0.811-1.153,1.301-2.198,1.473-3.139c-0.086,0.428-0.128-0.938-0.128-4.099C68.059,35.128,70.919,32.012,76.641,29.021z
		 M16.692,21.208c-0.855,1.111-1.281,2.306-1.281,3.586c0,0.599,0.084,1.389,0.256,2.37c0.17,0.982,0.256,1.729,0.256,2.242
		c0,1.879-1.069,3.502-3.203,4.868c0-0.769,0-1.538,0-2.306c0-0.596-0.128-1.515-0.384-2.754c-0.256-1.237-0.384-2.198-0.384-2.882
		c0-1.707,1.451-3.414,4.355-5.124H16.692z M44.745,26.075c-0.598,0.769-0.896,1.665-0.896,2.69c0,0.342,0,0.854,0,1.537
		c0,0.685,0,1.197,0,1.537c0,1.281-0.646,2.392-1.936,3.331h-0.114c0-0.512,0-1.025,0-1.537c0-0.513-0.064-1.195-0.192-2.05
		c-0.128-0.853-0.192-1.493-0.192-1.921c0-1.195,1.025-2.39,3.074-3.586H44.745z M66.521,25.691
		c-0.854,1.111-1.281,2.306-1.281,3.586c0,0.599,0.084,1.389,0.256,2.37c0.17,0.982,0.256,1.729,0.256,2.242
		c0,1.879-1.069,3.502-3.203,4.867c0-0.769,0-1.537,0-2.306c0-0.596-0.128-1.515-0.384-2.754c-0.256-1.237-0.384-2.198-0.384-2.882
		c0-1.707,1.451-3.415,4.355-5.124H66.521z"/>
	<path d="M112.64,115.87L98.676,83.731l-0.887,1.107v31.031h-7.758c-0.222,0-3.436,0-9.53,0.11c-2.328,0-3.657,0-4.212-0.11V42.283
		c-1.219-1.441-1.773-2.881-1.773-4.101c0-1.884,0.665-4.101,2.106-6.649c2.105-3.657,4.765-5.431,8.201-5.098
		c0.997,1.663,3.878,3.768,8.422,6.096c3.325,1.662,4.987,4.765,4.987,9.309c0,1.662-0.443,5.43-0.443,7.093v2.105
		c0,0.554,0.111,1.663,0.443,3.103l3.104-3.103c1.219-0.997,2.549-1.662,3.768-1.995c2.105-6.095,3.657-10.085,4.544-11.748
		c2.66-5.541,5.431-8.312,8.312-8.312c0.443,0,1.885,0.665,2.438,0.665c0.11,0,0.887-0.554,2.327-1.662
		c1.44-1.219,2.882-1.773,4.101-1.773c3.214,0,5.319,2.992,6.317,8.977h1.884c-1.219,4.211-3.325,8.755-6.317,13.742
		c-2.216,3.657-3.324,7.314-3.324,10.861l0.332,1.108c-2.992,0-3.657,0.554-4.987,3.325l-2.771,6.317l19.838,45.327H112.64z
		 M95.462,46.272c0-0.111,0-1.552,0.11-4.322v-2.992l-0.332-2.771c-0.11-0.332-1.662-1.219-4.654-2.549
		c-2.992-1.44-4.987-3.325-5.984-5.874h-1.33c-0.887,0-1.552,0.222-1.995,0.776c-0.997,1.44-2.327,3.325-3.879,5.652
		c-0.554,0.776-0.887,1.663-0.887,2.549c0,1.108,1.108,3.546,3.214,7.204s3.657,5.542,4.434,5.542l1.772-0.222
		c0.998,0,1.885,0.776,2.771,2.438c0.776,2.106,1.663,4.211,2.55,6.317c0.775-0.554,1.551-1.551,2.216-2.992
		c0.998-2.992,1.663-4.766,1.995-5.541V46.272z M81.498,32.973c0-0.886,0.443-1.44,1.33-1.773c0.997,0,1.662,0.554,1.995,1.773
		H81.498z M126.382,27.986c-0.775,0-1.773,0.665-2.771,1.884c-0.997,1.219-1.884,1.884-2.549,1.995
		c-1.33,0.111-3.879-0.665-4.433-0.665c-1.552,0-3.436,2.549-5.764,7.758c-1.994,4.543-3.324,8.312-3.989,11.415
		c0,1.441-0.997,2.217-2.882,2.438h-0.887c-2.327,0-3.657,2.66-3.989,8.09c-0.11,2.992,0.887,6.871,3.104,11.415l3.879-12.302
		c1.219-3.99,2.549-6.539,3.768-7.647c1.108,0.887,2.105,1.33,2.882,1.33c0.332,0,1.329-1.552,2.771-4.766
		c1.551-3.214,2.992-4.876,4.433-5.098l3.547,13.521l1.329-3.214c-0.11-0.443-0.222-0.886-0.222-1.219
		c0-1.773,1.108-4.876,3.214-9.42c2.217-4.543,3.325-7.204,3.325-8.09C131.147,30.424,129.596,27.986,126.382,27.986z
		 M125.717,31.422l0.887-1.995l0.665,0.222l0.665,1.995L125.717,31.422z"/>
</g>
</svg>
