<svg xmlns="http://www.w3.org/2000/svg" width="435.9" height="78.2"><g fill="#FFF"><path d="M60 11c-2 1-3 3-3 6l1 3v3l-1 3-1 2v1l-1 3-1 3-1 2-3 6-1 6v2l-2 4-1 4h-1l-1 1-1 4a8 8 0 010 2v1l-2 1-2 1h-3l-1-1v-1a52 52 0 00-2-10v-1l-1-5v-1h1l-1-3v3l-2 5-2 4v1l-2 4v2l-1 2-3 1h-2-1l-1-1-1-3a105 105 0 00-1-9v-1l-1-2v-2-1-3-2l-1-2v-3-1-1-1l-1-2v-1l1-1h-1v-1-1-3h1l-1-3v-2l3-6v3l3-4a350 350 0 006-7l-2 4-1 5v2l2-1 1 2-3 7 1 2-1 2a89 89 0 010 8v3l1 2-1 2v3l1 1-1 1v2a7222 7222 0 013-9l1-4v-4l1-2 1-3 1-3-1-6c0-2 2-5 5-8l-1 4 1 2 3-4 1 2 2-3 1-3a67 67 0 010-6l1 7 1 7-1 6-1 1v1l-1 10v4l1 3v1l-1 1 1 1v3l-1 2 3-7 1-7v-3l2-4 2-5-1-3c0-2 1-3 2-3l2-3c0 3 1 4 2 4l1-1 1-2v-3c0-2 2-4 6-6zM20 5l-1 3v3l-2 3v-1-2-2c0-1 0-3 2-4h1zm19 4l-1 1v2l-1 3v-1l-1-2v-1l2-2h1zm14-1l-1 3v1l1 2-3 3v-1-2-2l3-4zM86 22l-2 7-3 8h2l1-2 1 2-2 8-3 7v5l-1 1v3l1 2-1 2-1 2-1 1-2 1-1-1-1-1v-2-4-4l-1-1v-1-2l-2 2-1 1-3 1v1l-1 1-2 2h-1v1l-1 3v1l-1 3-2 1-2-1-1-1 1-2v-2-2-2-2-1l1-5 1-4-1-7-2-6 2-4v1l2 2h1l2-5c0-6 3-11 9-13l-2 3 2 1 6-2a8 8 0 002-9l2 4 1 5 1 4 1-1 1-2v-2l1 5zM73 41v-2-2-1-2l-1-1-2 3-3 7-1 6a53 53 0 013-1l1 1 1-1 2-1v-2-1-1-2zm-5-31l-1 2v1l1 1-2 2v-1-1-1c0-1 0-2 2-3zm8-5l-1 2v3l-2 3v-1-2-2c0-1 0-2 2-3h1z"/><path d="M119 26l-1 6v2l-2 2v2a91 91 0 01-5 4v1l-2 1-1 1h-1v1l-1 1 1 1v1l1 2v1l1 1v5l1 2h1v4h1v1l2 2v1l-1 1v1h-1v1h-1v1h-1c-1 0 0 0 0 0l-1-1v-1l-3-1v-3l-2-1-1-1v-1-1l-1-1-2-1v-1-1l-1-3-1-1v-1h-1l-1 1v3l-1 3v2l-2 5-1 1-2 1h-1v-2c-1 0-1 0 0 0v-1-2-3a36 36 0 000-4v-2-1-1-1-2l1-1v-2-1l1-2v-1l-1-2 1-1v-2-1-1l-1 1-2 1-1 1h-2-1v-1h-1l1-2a32 32 0 01-2-1l1-2 2-2 2-6 2-4 5-3-3 5 2 1c2 0 3-1 5-3l4-6c2-3 4-4 7-5-3 1-4 3-4 5l1 2 3 1c2 0 4-1 4-5l1 4v5l1 2c2 0 3-1 3-3l1 5zM99 8l-1 3v1l1 2-2 3v-2l-1-2v-1c0-2 1-3 3-4zm10 26v-1h-1-2l-1-1v1s-1 0 0 0h-4l-1 4a129 129 0 00-2 5v4l1-1 2-1 1-1 1-1h1l2-4h1v-1l1-1h1v-2z"/><path d="M154 25v2l-1 3-1 3-1 6a70 70 0 000 7l1 1-1 3-1 4-1 1v1l-1 4 1 1v1c0 2-2 3-4 3-1 0-2 0-3-2l1-2v-1-2-2-2-1-3l1-2v-2l-3 5-1 1-2 4v2l-1 1-1 1v3c0 3 0 4-2 4h-1l-1-1-1-1v-1l-2-4-1-4-2-10-1 3v3l-1 2v7l-1 1v4a91 91 0 00-1 3h-2l-1 1h-1l-1-1v-1-8-1-2-1-1-2-1-1l1-1v-2-1-1-1-2-2-2-1-1-1l1-3-1-1v-1l1-3h1l2-2v-1l1-3 3-3 1 4 1-1 1-2v-3c0-2 2-4 6-6-2 1-2 3-2 6v7l-1 3-1 3 1 2c1 0 3-1 4-4v3l-1 6-2 5c0 2 1 3 2 3h1l1-2 1-3v-3l2-3v-2l1-3 1-2v-2-1c0-3 1-5 3-7v3l3-4 3-4 3-3-2 4-1 5 1 2 2-1a11 11 0 01-1 4l1 2zm-5-20l-1 2 1 2v1l-2 4v-2l-1-2V8l3-3zM204 54c0 11-8 15-15 15s-14-5-14-14c0-10 7-16 15-16s14 6 14 15zm-23 0c0 7 3 12 9 12 5 0 8-5 8-12 0-5-2-11-8-11s-9 6-9 11zM211 69V44h-4v-4h4v-2c0-4 1-7 3-10 2-2 5-2 8-2h4l-1 4h-3c-5 0-6 4-6 8v2h7v4h-7v25h-5zM278 69l-10-22v22h-6-9V18l-1-2 1-5c2-2 3-4 6-3l6 4c2 1 3 3 3 6v9l2-3 3-1 3-8c2-4 3-6 5-6l2 1 2-1 3-2c2 0 3 2 4 7h1l-4 9c-2 2-2 5-2 7v1l-4 2-2 5 14 31h-17zm-12-48v-7l-3-2c-2-1-4-2-4-4h-1l-2 1-2 4-1 2 2 5 3 3h2l1 2 2 4 2-2 1-4v-2zm-10-9l1-1 2 1h-3zm31-3l-2 1-1 1h-3c-2 0-3 2-4 5l-3 8-2 2h-1c-1 0-2 1-2 5-1 2 0 5 2 8l2-8 3-6 2 1 2-3 3-4 2 10 1-2v-1l2-7 3-5c0-4-2-5-4-5zm0 2v-1h1v1h-1zM338 43c0 11-2 18-6 22-2 2-7 4-14 4-12 0-18-8-18-23a87 87 0 012-22l-1-3v-4c0-1 0-2 2-3 1-2 2-2 3-2h1l4-2c2 0 3 2 3 2l2-1 2-2 3 1 2-1 3-2 4 2 3 3 2 8 2 8 1 15zm-4-22v-2l-2-4-1-4-2-1-4-2-2 3-2 1-2-1-3 1-2 2-3-2-2 1-3 1-1-1-2 2-1 2v3l2 3 2-1 2-1 2 1 2-3 2-2 3 2 2 1 2-2 1-2c1 0 3 1 4 4l2 4 2-4 5 15-1-9 1-2-1-3zm-26-3h-1l-1-1 1-1 2 2h-1zm14 6l-1-2v1l-2 1v-1l-1-1-2 2v30l2-1 4 4V24zm-4 31l-1 3-1 2 1 2c1 0 2 0 2 2l2 2 1-5c0-2-2-4-4-6zm9-40l-1 1h-1l-1-1v-2l1 2 2-1v1zM372 67l-10 2-11-2c-5-1-8-3-8-6V15l1-4 2-4c3 0 4 1 4 3v1c1-2 2-2 3-2l2 1 2 2 1 2v36l1 4v-2l2-1 3 1 2 3V15l1-4 3-2 3 1 1 3 1-1 1-1 2 2 1 4v44c0 3-2 5-7 6zm-18-55l-1-2-2 1-1 1-2-1v-1l-1-1c-1-1-2 1-2 3v5l1 3v-3l2-1h2l2 3 1 1v1l1 2v1l1 1 1-1V13l-2-1zm-1 4l-1-1v-1l2 1-1 1zm10 39l-1-2h-1l-1 2-1 2 2 4 1 2 1 1 2-6-2-3zm14-40l-1-2-2 1c-1 0-3-1-2-3l-2-1-2 4 3 5 2 2c0 4 1 6 2 6l1-6v-3l1-1v-2zM414 69h-27V23l-1-1-1-5v-5c0-2 2-4 4-4l4 1 3 2 1-1h7l2-1 3-2 3 2 3 3h3l4 4 1 5c1 1 2 9 2 25v9l-1 6-2 6-8 2zm6-54l-3-2-2 1-3-3c-1-2-2-2-4-2l-2 1-2 2h-3l-4-1c0 2-1 2-2 2l-3-2-3-2c-2 0-2 2-2 4v4l1 4v2l2-2a10 10 0 013 0l1-3c1-2 2-1 3-1l3 2 1-1 2-1 3 2 2 1 1-2 1-2 2 1 1 1h1l2-1 2 2 2 5v-5-4zm-11 11c0-2-2-3-4-3l-3 1v30h4l4-1-1-27zm1 32l-2-1-4-1-1 3-1 1 1 2 2 1 1-3 2 1 2 2 1-3-1-2z"/></g></svg>