<?xml version="1.0" encoding="UTF-8" standalone="no"?>
<svg
   width="435.9"
   height="78.2"
   version="1.1"
   id="svg10"
   sodipodi:docname="titel.svg"
   inkscape:version="1.2 (dc2aeda, 2022-05-15)"
   xmlns:inkscape="http://www.inkscape.org/namespaces/inkscape"
   xmlns:sodipodi="http://sodipodi.sourceforge.net/DTD/sodipodi-0.dtd"
   xmlns="http://www.w3.org/2000/svg"
   xmlns:svg="http://www.w3.org/2000/svg">
  <defs
     id="defs14" />
  <sodipodi:namedview
     id="namedview12"
     pagecolor="#505050"
     bordercolor="#eeeeee"
     borderopacity="1"
     inkscape:showpageshadow="0"
     inkscape:pageopacity="0"
     inkscape:pagecheckerboard="0"
     inkscape:deskcolor="#505050"
     showgrid="false"
     inkscape:zoom="2.9158064"
     inkscape:cx="227.20987"
     inkscape:cy="40.983516"
     inkscape:window-width="1687"
     inkscape:window-height="607"
     inkscape:window-x="1875"
     inkscape:window-y="639"
     inkscape:window-maximized="0"
     inkscape:current-layer="svg10" />
  <g
     aria-label="opt padje of vant padje?"
     transform="scale(0.96172675,1.0397964)"
     id="text228"
     style="font-size:37.8539px;line-height:1.25;stroke-width:0.946347">
    <path
       d="m 21.77604,44.8077 q -3.105202,0 -5.341688,-2.291936 -2.495252,-2.550702 -2.624635,-6.857322 -0.110901,-4.177238 2.107101,-7.356374 2.587669,-3.75212 7.208507,-3.75212 3.69667,0 5.600455,3.382453 1.515635,2.735536 1.460185,6.580073 -0.05545,4.103304 -2.144069,7.00519 Q 25.676027,44.8077 21.77604,44.8077 Z m 1.109001,-16.505632 q -2.717052,-0.01848 -4.232687,2.587669 -1.201417,2.088619 -1.201417,4.768705 0,2.680085 1.460184,4.177237 1.219901,1.238384 2.864919,1.238384 1.922269,0 3.30852,-1.404735 1.571085,-1.552601 1.663502,-4.19572 0.258767,-7.153056 -3.863021,-7.17154 z"
       style="font-family:'Comic Sans MS';-inkscape-font-specification:'Comic Sans MS';fill:#ffffff"
       id="path280" />
    <path
       d="m 42.606776,44.364099 q -1.848335,0 -4.066337,-0.591467 l -0.03697,8.835042 q 0,0.813267 -0.517534,1.330801 -0.49905,0.517534 -1.293835,0.517534 -0.794784,0 -1.312317,-0.517534 -0.499051,-0.517534 -0.499051,-1.330801 l 0.05545,-7.39334 v -7.374857 q -0.05545,-4.047854 -0.27725,-7.374857 l -0.27725,-3.75212 q 0,-1.312318 0.480567,-2.218002 0.5545,-1.090518 1.608051,-1.090518 0.720851,0 1.201418,0.517534 0.49905,0.499051 0.49905,1.238385 0,0.16635 -0.05545,0.60995 -0.09242,0.572984 -0.129383,1.053551 1.589568,-1.090517 3.068236,-1.626535 1.478668,-0.5545 2.827953,-0.5545 3.789086,0 5.545005,3.36397 1.386251,2.661602 1.386251,7.042156 0,3.992404 -2.144069,6.580073 -2.273452,2.735535 -6.062539,2.735535 z m 1.275352,-16.025064 q -1.700469,0 -3.068236,0.757817 -0.979618,0.536017 -2.476769,1.959235 0.240283,4.195721 0.240283,8.816558 2.014685,0.776301 4.02937,0.776301 2.310419,0 3.53032,-1.718952 1.053551,-1.497151 1.053551,-3.881503 0,-3.36397 -0.83175,-5.027471 -0.813268,-1.681985 -2.476769,-1.681985 z"
       style="font-family:'Comic Sans MS';-inkscape-font-specification:'Comic Sans MS';fill:#ffffff"
       id="path282" />
    <path
       d="m 67.355981,27.969368 q -0.38815,0 -0.924167,-0.03697 -0.517534,-0.03697 -0.905684,-0.03697 -0.425117,0 -2.513736,0.27725 l 0.351184,10.92366 0.01848,0.813267 0.01848,0.942651 q 0.07393,4.047854 -1.940751,4.047854 -0.739334,0 -1.293835,-0.480568 -0.536017,-0.480567 -0.536017,-1.201417 0,-0.702368 0.05545,-2.107102 0.05545,-1.404735 0.05545,-2.107102 L 59.371174,28.209651 q -1.349285,-0.05545 -4.103304,-0.314216 -1.645018,-0.221801 -1.645018,-1.829852 0,-0.813268 0.499051,-1.349285 0.49905,-0.536017 1.275351,-0.536017 l 3.881503,0.314217 q 0,-0.942651 -0.09242,-2.513736 -0.07393,-1.589568 -0.07393,-2.291935 0,-0.776301 0.536017,-1.275351 0.536017,-0.517534 1.312318,-0.517534 1.663502,0 1.940752,2.717053 0.05545,0.683884 0.05545,1.645018 l -0.03697,1.072034 -0.01848,1.145968 q 2.291935,-0.295734 2.624636,-0.295734 1.922268,0 2.513735,0.184834 1.127485,0.369667 1.127485,1.737435 0,0.813267 -0.517534,1.349284 -0.499051,0.517534 -1.293835,0.517534 z"
       style="font-family:'Comic Sans MS';-inkscape-font-specification:'Comic Sans MS';fill:#ffffff"
       id="path284" />
    <path
       d="m 91.994291,44.364099 q -1.848335,0 -4.066337,-0.591467 l -0.03697,8.835042 q 0,0.813267 -0.517534,1.330801 -0.49905,0.517534 -1.293834,0.517534 -0.794784,0 -1.312318,-0.517534 -0.499051,-0.517534 -0.499051,-1.330801 l 0.05545,-7.39334 V 37.839477 Q 84.26825,33.791623 84.04645,30.46462 L 83.7692,26.7125 q 0,-1.312318 0.480567,-2.218002 0.5545,-1.090518 1.608051,-1.090518 0.720851,0 1.201418,0.517534 0.499051,0.499051 0.499051,1.238385 0,0.16635 -0.05545,0.60995 -0.09242,0.572984 -0.129384,1.053551 1.589568,-1.090517 3.068236,-1.626535 1.478668,-0.5545 2.827953,-0.5545 3.789087,0 5.545005,3.36397 1.386253,2.661602 1.386253,7.042156 0,3.992404 -2.144071,6.580073 -2.273452,2.735535 -6.062538,2.735535 z m 1.275351,-16.025064 q -1.700468,0 -3.068236,0.757817 -0.979618,0.536017 -2.476769,1.959235 0.240283,4.195721 0.240283,8.816558 2.014685,0.776301 4.029371,0.776301 2.310418,0 3.530319,-1.718952 1.053551,-1.497151 1.053551,-3.881503 0,-3.36397 -0.83175,-5.027471 -0.813268,-1.681985 -2.476769,-1.681985 z"
       style="font-family:'Comic Sans MS';-inkscape-font-specification:'Comic Sans MS';fill:#ffffff"
       id="path286" />
    <path
       d="m 118.81363,44.937083 q -0.35118,0 -1.27535,-0.813267 -0.83175,-0.757817 -1.23839,-1.349285 -1.7744,0.961135 -3.12368,1.441702 -1.34929,0.49905 -2.25497,0.49905 -4.32511,0 -6.30282,-2.439802 -1.86682,-2.291936 -1.86682,-7.023673 0,-4.472971 3.06823,-7.652107 3.08672,-3.179136 7.35638,-3.179136 1.60805,0 3.60425,0.83175 2.51374,1.035068 2.51374,2.495253 0,0.49905 -0.36967,0.887201 -0.18483,0.702367 -0.29573,2.310418 -0.0924,1.608052 -0.1109,4.121787 -0.0185,2.291936 0.31421,3.622737 0.18484,0.813267 1.16445,3.25307 0.12939,0.3327 0.42512,0.979617 l 0.1109,0.314217 q 0,0.739334 -0.51753,1.219901 -0.51754,0.480567 -1.20142,0.480567 z m -3.84454,-12.845928 q 0,-0.794784 0.0924,-1.718952 0.1109,-0.94265 0.31422,-1.996201 -0.68389,-0.351184 -1.18294,-0.517534 -0.48057,-0.16635 -0.7763,-0.16635 -2.86492,0 -4.95354,2.347385 -2.07013,2.328902 -2.07013,5.378655 0,3.031269 1.07203,4.546904 1.07204,1.515635 3.2161,1.515635 1.77441,0 3.01279,-0.646917 0.6654,-0.351184 1.86682,-1.404735 -0.59147,-4.898088 -0.59147,-7.33789 z"
       style="font-family:'Comic Sans MS';-inkscape-font-specification:'Comic Sans MS';fill:#ffffff"
       id="path288" />
    <path
       d="m 140.77185,27.396384 q -0.2218,2.717053 -0.2218,5.434105 0,6.154956 0.57298,9.297125 0.037,0.258767 0.037,0.425117 0,0.739334 -0.51753,1.219901 -0.51754,0.480567 -1.20142,0.480567 -1.14597,0 -1.68199,-1.663501 -1.3308,0.979617 -2.7725,1.478668 -1.42322,0.49905 -2.97582,0.49905 -3.82605,0 -6.33979,-2.550702 -2.58767,-2.606152 -2.58767,-6.690973 0,-4.935054 2.60616,-7.910874 2.62463,-2.975819 6.80187,-2.975819 2.14407,0 3.30852,0.665401 l 1.73743,1.275351 q 0.25877,-7.781491 0.60995,-10.48006 0.24029,-1.645018 1.68199,-1.645018 1.68198,0 1.68198,1.792885 0,2.569186 -0.73933,11.348777 z m -8.20661,0.480567 q -3.1052,0 -4.6578,1.848335 -1.5526,1.829852 -1.5526,5.526522 0,2.384352 1.68198,4.103304 1.70047,1.718951 3.97392,1.718951 1.5526,0 2.62464,-0.572984 0.62843,-0.3327 2.05165,-1.534118 0.27725,-0.240283 0.53602,-0.572984 l -0.0555,-3.197619 0.0185,-2.144069 0.037,-2.181035 q -0.70237,-1.497151 -1.86682,-2.236485 -1.16445,-0.757818 -2.79099,-0.757818 z"
       style="font-family:'Comic Sans MS';-inkscape-font-specification:'Comic Sans MS';fill:#ffffff"
       id="path290" />
    <path
       d="m 152.0467,20.335744 q -0.8872,0 -1.53412,-0.628434 -0.62844,-0.628433 -0.62844,-1.497151 0,-0.887201 0.62844,-1.515635 0.64692,-0.628434 1.53412,-0.628434 0.8872,0 1.53411,0.628434 0.64692,0.628434 0.64692,1.515635 0,0.868718 -0.64692,1.497151 -0.64691,0.628434 -1.53411,0.628434 z m -0.14787,27.669575 q 0.0185,-2.162552 -0.62843,-11.071526 l -0.62844,-10.184326 q 0,-0.924168 0.51754,-1.645018 0.53601,-0.720851 1.34928,-0.720851 0.62843,0 1.25687,0.462084 0.62843,0.462084 0.6654,0.942651 l 0.60995,10.646409 0.49905,11.385744 q 0,2.569186 -1.53412,4.657804 -1.6635,2.273452 -4.04785,2.273452 -3.97392,0 -6.65401,-6.117989 -0.2218,-0.49905 -0.2218,-0.887201 0,-0.739334 0.57299,-1.275351 0.59146,-0.536017 1.3308,-0.536017 1.09051,0 2.27345,2.402836 0.29573,0.628434 1.03507,1.811368 0.72085,0.924167 1.6635,0.924167 0.81327,0 1.38625,-1.219901 0.4436,-0.924167 0.5545,-1.848335 z"
       style="font-family:'Comic Sans MS';-inkscape-font-specification:'Comic Sans MS';fill:#ffffff"
       id="path292" />
    <path
       d="m 169.88312,44.567416 q -4.17723,0 -6.7649,-2.088618 -2.82795,-2.310419 -2.82795,-6.469173 0,-4.805671 2.3289,-8.05874 2.53222,-3.548804 6.7649,-3.548804 3.06824,0 5.00899,1.035068 2.38435,1.275351 2.38435,3.91847 0,1.848335 -2.08861,3.36397 -0.92417,0.6654 -3.91847,2.070135 l -7.06064,3.345486 q 1.03506,1.534118 2.56918,2.310419 1.5526,0.776301 3.60425,0.776301 1.27536,0 2.99431,-0.480567 2.18103,-0.609951 2.80947,-1.589568 0.62843,-0.998101 1.34928,-0.998101 0.64692,0 1.14597,0.49905 0.51753,0.480567 0.51753,1.127485 0,2.051651 -3.30852,3.530319 -2.82795,1.256868 -5.50804,1.256868 z m -0.49905,-16.838332 q -2.25496,0 -3.75212,1.755919 -1.49715,1.737435 -2.23648,5.249271 l 5.67439,-2.698569 q 3.34548,-1.626535 4.7687,-2.827953 -1.58957,-1.478668 -4.45449,-1.478668 z"
       style="font-family:'Comic Sans MS';-inkscape-font-specification:'Comic Sans MS';fill:#ffffff"
       id="path294" />
    <path
       d="m 200.23278,44.8077 q -3.1052,0 -5.34169,-2.291936 -2.49525,-2.550702 -2.62463,-6.857322 -0.1109,-4.177238 2.1071,-7.356374 2.58767,-3.75212 7.20851,-3.75212 3.69667,0 5.60045,3.382453 1.51564,2.735536 1.46019,6.580073 -0.0555,4.103304 -2.14407,7.00519 -2.36587,3.290036 -6.26586,3.290036 z m 1.109,-16.505632 q -2.71705,-0.01848 -4.23268,2.587669 -1.20142,2.088619 -1.20142,4.768705 0,2.680085 1.46018,4.177237 1.2199,1.238384 2.86492,1.238384 1.92227,0 3.30852,-1.404735 1.57109,-1.552601 1.6635,-4.19572 0.25877,-7.153056 -3.86302,-7.17154 z"
       style="font-family:'Comic Sans MS';-inkscape-font-specification:'Comic Sans MS';fill:#ffffff"
       id="path296" />
    <path
       d="m 225.62891,17.729592 q -4.47297,0 -5.00899,6.210406 l -0.0555,1.145967 q 3.14217,-0.2218 4.06634,-0.2218 2.93885,0 2.93885,1.848335 0,1.349285 -1.4417,1.608052 -0.62844,0.1109 -1.47867,0.09242 -0.83175,-0.03697 -4.25117,0.240284 l -0.14787,4.214204 q 0,1.145967 0.0739,3.437903 0.0739,2.291935 0.0739,3.41942 0,3.511836 -0.40663,5.471071 -0.31422,1.478668 -1.71896,1.478668 -0.75781,0 -1.29383,-0.49905 -0.53602,-0.480567 -0.53602,-1.219901 0,-0.147867 0.037,-0.369667 0.38815,-2.402836 0.38815,-5.230788 l -0.0554,-5.045955 v -5.360172 q -2.31042,0.184834 -2.92037,0.184834 -1.86682,0 -1.86682,-1.792885 0,-1.829852 3.23459,-1.922268 l 1.7744,-0.05545 q 0.0554,-1.035068 0.27725,-2.80947 0.48057,-4.103303 2.07013,-6.044055 1.92227,-2.347386 6.00709,-2.347386 2.64312,0 2.64312,1.792885 0,1.774402 -2.40283,1.774402 z"
       style="font-family:'Comic Sans MS';-inkscape-font-specification:'Comic Sans MS';fill:#ffffff"
       id="path298" />
    <path
       d="m 252.2819,42.756048 q -0.0555,1.700468 -1.68199,1.700468 -1.34928,0 -1.95923,-1.589568 l -2.82795,-7.50424 -3.29004,-8.483858 q -0.18483,-0.480567 -0.18483,-0.850234 0,-0.757817 0.57298,-1.293834 0.57298,-0.536017 1.3308,-0.536017 1.109,0 1.58957,1.127484 l 4.69477,12.919862 q 1.38625,-2.957336 3.49335,-8.576275 0.49905,-1.478668 1.57109,-4.177237 0.57298,-1.182934 1.62653,-1.182934 0.75782,0 1.3308,0.536017 0.57299,0.536017 0.57299,1.275351 0,0.702367 -3.04975,7.910874 z"
       style="font-family:'Comic Sans MS';-inkscape-font-specification:'Comic Sans MS';fill:#ffffff"
       id="path300" />
    <path
       d="m 276.60599,44.937083 q -0.35118,0 -1.27535,-0.813267 -0.83175,-0.757817 -1.23838,-1.349285 -1.7744,0.961135 -3.12369,1.441702 -1.34928,0.49905 -2.25497,0.49905 -4.3251,0 -6.30282,-2.439802 -1.86682,-2.291936 -1.86682,-7.023673 0,-4.472971 3.06824,-7.652107 3.08672,-3.179136 7.35637,-3.179136 1.60805,0 3.60426,0.83175 2.51373,1.035068 2.51373,2.495253 0,0.49905 -0.36967,0.887201 -0.18483,0.702367 -0.29573,2.310418 -0.0924,1.608052 -0.1109,4.121787 -0.0185,2.291936 0.31422,3.622737 0.18483,0.813267 1.16445,3.25307 0.12938,0.3327 0.42512,0.979617 l 0.1109,0.314217 q 0,0.739334 -0.51754,1.219901 -0.51753,0.480567 -1.20142,0.480567 z m -3.84453,-12.845928 q 0,-0.794784 0.0924,-1.718952 0.1109,-0.94265 0.31422,-1.996201 -0.68388,-0.351184 -1.18293,-0.517534 -0.48057,-0.16635 -0.7763,-0.16635 -2.86492,0 -4.95354,2.347385 -2.07014,2.328902 -2.07014,5.378655 0,3.031269 1.07204,4.546904 1.07203,1.515635 3.2161,1.515635 1.7744,0 3.01279,-0.646917 0.6654,-0.351184 1.86682,-1.404735 -0.59147,-4.898088 -0.59147,-7.33789 z"
       style="font-family:'Comic Sans MS';-inkscape-font-specification:'Comic Sans MS';fill:#ffffff"
       id="path302" />
    <path
       d="m 295.71777,45.0295 q -1.58957,0 -1.79288,-1.737435 l -0.51754,-4.047854 q -0.25876,-2.162552 -0.25876,-4.047853 0,-0.517534 0.0555,-1.755918 0.0739,-1.238385 0.0739,-1.755919 0,-3.992403 -1.47867,-3.992403 -2.07013,0 -3.95543,2.458285 -1.70047,2.236486 -2.66161,5.655905 -0.037,0.720851 -0.16635,1.811369 -0.1109,0.924167 -0.1109,1.792885 0,0.5545 0.1109,1.663501 0.1109,1.109001 0.1109,1.663502 0,0.83175 -0.51753,1.349284 -0.49905,0.517534 -1.29384,0.517534 -0.81326,0 -1.31231,-0.517534 -0.49905,-0.517534 -0.49905,-1.349284 0,-0.554501 -0.12939,-1.663502 -0.1109,-1.109001 -0.1109,-1.663501 0,-1.903785 0.25877,-5.267755 0.27725,-3.382453 0.27725,-5.286238 0,-0.591467 -0.0739,-1.755919 -0.0555,-1.164451 -0.0555,-1.755918 0,-0.794784 0.51753,-1.293834 0.53602,-0.517534 1.31232,-0.517534 1.70047,0 1.86682,2.402835 l 0.0555,2.162552 q 3.1052,-4.14027 6.37675,-4.14027 2.95734,0 4.12179,2.606152 0.79478,1.737435 0.86872,5.138372 v 1.866818 l -0.0185,1.718952 q 0,1.534118 0.38815,3.97392 0.40664,2.421319 0.40664,3.936953 0,0.813268 -0.53602,1.312318 -0.51753,0.517534 -1.31232,0.517534 z"
       style="font-family:'Comic Sans MS';-inkscape-font-specification:'Comic Sans MS';fill:#ffffff"
       id="path304" />
    <path
       d="m 313.72055,27.969368 q -0.38815,0 -0.92417,-0.03697 -0.51753,-0.03697 -0.90568,-0.03697 -0.42512,0 -2.51374,0.27725 l 0.35119,10.92366 0.0185,0.813267 0.0185,0.942651 q 0.0739,4.047854 -1.94075,4.047854 -0.73933,0 -1.29383,-0.480568 -0.53602,-0.480567 -0.53602,-1.201417 0,-0.702368 0.0555,-2.107102 0.0555,-1.404735 0.0555,-2.107102 l -0.36967,-10.794277 q -1.34928,-0.05545 -4.1033,-0.314216 -1.64502,-0.221801 -1.64502,-1.829852 0,-0.813268 0.49905,-1.349285 0.49905,-0.536017 1.27535,-0.536017 l 3.88151,0.314217 q 0,-0.942651 -0.0924,-2.513736 -0.0739,-1.589568 -0.0739,-2.291935 0,-0.776301 0.53601,-1.275351 0.53602,-0.517534 1.31232,-0.517534 1.6635,0 1.94075,2.717053 0.0555,0.683884 0.0555,1.645018 l -0.037,1.072034 -0.0185,1.145968 q 2.29194,-0.295734 2.62464,-0.295734 1.92227,0 2.51374,0.184834 1.12748,0.369667 1.12748,1.737435 0,0.813267 -0.51753,1.349284 -0.49905,0.517534 -1.29384,0.517534 z"
       style="font-family:'Comic Sans MS';-inkscape-font-specification:'Comic Sans MS';fill:#ffffff"
       id="path306" />
    <path
       d="m 338.35887,44.364099 q -1.84834,0 -4.06634,-0.591467 l -0.037,8.835042 q 0,0.813267 -0.51754,1.330801 -0.49905,0.517534 -1.29383,0.517534 -0.79479,0 -1.31232,-0.517534 -0.49905,-0.517534 -0.49905,-1.330801 l 0.0555,-7.39334 v -7.374857 q -0.0555,-4.047854 -0.27725,-7.374857 l -0.27725,-3.75212 q 0,-1.312318 0.48057,-2.218002 0.5545,-1.090518 1.60805,-1.090518 0.72085,0 1.20141,0.517534 0.49905,0.499051 0.49905,1.238385 0,0.16635 -0.0555,0.60995 -0.0924,0.572984 -0.12938,1.053551 1.58957,-1.090517 3.06824,-1.626535 1.47867,-0.5545 2.82795,-0.5545 3.78909,0 5.54501,3.36397 1.38625,2.661602 1.38625,7.042156 0,3.992404 -2.14407,6.580073 -2.27345,2.735535 -6.06254,2.735535 z m 1.27535,-16.025064 q -1.70047,0 -3.06824,0.757817 -0.97961,0.536017 -2.47677,1.959235 0.24029,4.195721 0.24029,8.816558 2.01468,0.776301 4.02937,0.776301 2.31042,0 3.53032,-1.718952 1.05355,-1.497151 1.05355,-3.881503 0,-3.36397 -0.83175,-5.027471 -0.81327,-1.681985 -2.47677,-1.681985 z"
       style="font-family:'Comic Sans MS';-inkscape-font-specification:'Comic Sans MS';fill:#ffffff"
       id="path308" />
    <path
       d="m 365.1782,44.937083 q -0.35118,0 -1.27535,-0.813267 -0.83175,-0.757817 -1.23839,-1.349285 -1.7744,0.961135 -3.12368,1.441702 -1.34929,0.49905 -2.25497,0.49905 -4.32511,0 -6.30282,-2.439802 -1.86682,-2.291936 -1.86682,-7.023673 0,-4.472971 3.06823,-7.652107 3.08672,-3.179136 7.35638,-3.179136 1.60805,0 3.60425,0.83175 2.51374,1.035068 2.51374,2.495253 0,0.49905 -0.36967,0.887201 -0.18483,0.702367 -0.29573,2.310418 -0.0924,1.608052 -0.1109,4.121787 -0.0185,2.291936 0.31421,3.622737 0.18484,0.813267 1.16445,3.25307 0.12939,0.3327 0.42512,0.979617 l 0.1109,0.314217 q 0,0.739334 -0.51753,1.219901 -0.51754,0.480567 -1.20142,0.480567 z m -3.84454,-12.845928 q 0,-0.794784 0.0924,-1.718952 0.1109,-0.94265 0.31422,-1.996201 -0.68389,-0.351184 -1.18294,-0.517534 -0.48057,-0.16635 -0.7763,-0.16635 -2.86492,0 -4.95354,2.347385 -2.07013,2.328902 -2.07013,5.378655 0,3.031269 1.07203,4.546904 1.07204,1.515635 3.21611,1.515635 1.7744,0 3.01278,-0.646917 0.6654,-0.351184 1.86682,-1.404735 -0.59147,-4.898088 -0.59147,-7.33789 z"
       style="font-family:'Comic Sans MS';-inkscape-font-specification:'Comic Sans MS';fill:#ffffff"
       id="path310" />
    <path
       d="m 387.13641,27.396384 q -0.2218,2.717053 -0.2218,5.434105 0,6.154956 0.57299,9.297125 0.037,0.258767 0.037,0.425117 0,0.739334 -0.51753,1.219901 -0.51753,0.480567 -1.20142,0.480567 -1.14597,0 -1.68198,-1.663501 -1.3308,0.979617 -2.77251,1.478668 -1.42321,0.49905 -2.97582,0.49905 -3.82605,0 -6.33978,-2.550702 -2.58767,-2.606152 -2.58767,-6.690973 0,-4.935054 2.60615,-7.910874 2.62463,-2.975819 6.80187,-2.975819 2.14407,0 3.30852,0.665401 l 1.73744,1.275351 q 0.25876,-7.781491 0.60995,-10.48006 0.24028,-1.645018 1.68198,-1.645018 1.68199,0 1.68199,1.792885 0,2.569186 -0.73934,11.348777 z m -8.2066,0.480567 q -3.10521,0 -4.65781,1.848335 -1.5526,1.829852 -1.5526,5.526522 0,2.384352 1.68198,4.103304 1.70047,1.718951 3.97392,1.718951 1.55261,0 2.62464,-0.572984 0.62843,-0.3327 2.05165,-1.534118 0.27725,-0.240283 0.53602,-0.572984 l -0.0555,-3.197619 0.0185,-2.144069 0.037,-2.181035 q -0.70237,-1.497151 -1.86682,-2.236485 -1.16445,-0.757818 -2.79098,-0.757818 z"
       style="font-family:'Comic Sans MS';-inkscape-font-specification:'Comic Sans MS';fill:#ffffff"
       id="path312" />
    <path
       d="m 398.41126,20.335744 q -0.8872,0 -1.53412,-0.628434 -0.62843,-0.628433 -0.62843,-1.497151 0,-0.887201 0.62843,-1.515635 0.64692,-0.628434 1.53412,-0.628434 0.8872,0 1.53412,0.628434 0.64692,0.628434 0.64692,1.515635 0,0.868718 -0.64692,1.497151 -0.64692,0.628434 -1.53412,0.628434 z m -0.14787,27.669575 q 0.0185,-2.162552 -0.62843,-11.071526 l -0.62843,-10.184326 q 0,-0.924168 0.51753,-1.645018 0.53602,-0.720851 1.34928,-0.720851 0.62844,0 1.25687,0.462084 0.62844,0.462084 0.6654,0.942651 l 0.60995,10.646409 0.49905,11.385744 q 0,2.569186 -1.53412,4.657804 -1.6635,2.273452 -4.04785,2.273452 -3.97392,0 -6.654,-6.117989 -0.22181,-0.49905 -0.22181,-0.887201 0,-0.739334 0.57299,-1.275351 0.59147,-0.536017 1.3308,-0.536017 1.09052,0 2.27345,2.402836 0.29574,0.628434 1.03507,1.811368 0.72085,0.924167 1.6635,0.924167 0.81327,0 1.38625,-1.219901 0.4436,-0.924167 0.5545,-1.848335 z"
       style="font-family:'Comic Sans MS';-inkscape-font-specification:'Comic Sans MS';fill:#ffffff"
       id="path314" />
    <path
       d="m 416.24769,44.567416 q -4.17724,0 -6.76491,-2.088618 -2.82795,-2.310419 -2.82795,-6.469173 0,-4.805671 2.3289,-8.05874 2.53222,-3.548804 6.76491,-3.548804 3.06823,0 5.00899,1.035068 2.38435,1.275351 2.38435,3.91847 0,1.848335 -2.08862,3.36397 -0.92417,0.6654 -3.91847,2.070135 l -7.06064,3.345486 q 1.03507,1.534118 2.56918,2.310419 1.55261,0.776301 3.60426,0.776301 1.27535,0 2.9943,-0.480567 2.18104,-0.609951 2.80947,-1.589568 0.62843,-0.998101 1.34928,-0.998101 0.64692,0 1.14597,0.49905 0.51754,0.480567 0.51754,1.127485 0,2.051651 -3.30852,3.530319 -2.82796,1.256868 -5.50804,1.256868 z m -0.49905,-16.838332 q -2.25497,0 -3.75212,1.755919 -1.49715,1.737435 -2.23649,5.249271 l 5.67439,-2.698569 q 3.34549,-1.626535 4.7687,-2.827953 -1.58956,-1.478668 -4.45448,-1.478668 z"
       style="font-family:'Comic Sans MS';-inkscape-font-specification:'Comic Sans MS';fill:#ffffff"
       id="path316" />
    <path
       d="m 432.64244,38.02431 q -0.75781,0 -1.3308,-0.572984 -0.57298,-0.591467 -0.57298,-1.330801 0,-1.275351 2.36587,-3.142169 l 4.41752,-3.327003 q 2.38435,-2.051652 2.38435,-3.75212 0,-2.144069 -2.01469,-3.955437 -1.94075,-1.755918 -4.12178,-1.755918 -1.16445,0 -2.95734,1.201417 -1.79288,1.182935 -2.218,1.182935 -0.75782,0 -1.31232,-0.609951 -0.53602,-0.60995 -0.53602,-1.367768 0,-1.460184 2.82796,-2.901886 2.53222,-1.293834 4.19572,-1.293834 3.71515,0 6.74642,2.901886 3.03127,2.901886 3.03127,6.598556 0,2.698569 -1.73744,4.787187 -1.03506,1.256868 -3.84453,3.25307 -2.82795,2.051652 -3.93696,3.327003 -0.64691,0.757817 -1.38625,0.757817 z m -1.01658,7.023673 q -0.81327,0 -1.47867,-0.5545 -0.64692,-0.536017 -0.64692,-1.312318 0,-1.145968 0.60995,-2.070135 0.68389,-1.035068 1.75592,-1.035068 1.7744,0 1.7744,2.181036 0,1.016584 -0.48056,1.829851 -0.59147,0.961134 -1.53412,0.961134 z"
       style="font-family:'Comic Sans MS';-inkscape-font-specification:'Comic Sans MS';fill:#ffffff"
       id="path318" />
  </g>
</svg>
