<?xml version="1.0" encoding="utf-8"?>
<!-- Generator: Adobe Illustrator 16.0.0, SVG Export Plug-In . SVG Version: 6.00 Build 0)  -->
<!DOCTYPE svg PUBLIC "-//W3C//DTD SVG 1.1//EN" "http://www.w3.org/Graphics/SVG/1.1/DTD/svg11.dtd">
<svg version="1.1" id="Layer_1" xmlns="http://www.w3.org/2000/svg" xmlns:xlink="http://www.w3.org/1999/xlink" x="0px" y="0px"
	 width="435.915px" height="78.169px" viewBox="0 0 435.915 78.169" enable-background="new 0 0 435.915 78.169"
	 xml:space="preserve">
<g>
	<path fill="#FFFFFF" d="M59.953,10.531c-1.777,1.664-2.666,3.728-2.666,6.192c0,0.746,0.114,1.849,0.344,3.311
		c0.229,1.462,0.344,2.567,0.344,3.311c0,0.804-0.187,1.649-0.559,2.537c-0.374,0.89-0.761,1.735-1.161,2.537v0.602
		c-0.688,0.516-1.032,1.605-1.032,3.268c0,0.574-0.344,1.348-1.032,2.322c-0.516,0.746-1.019,1.492-1.505,2.236
		c-0.488,0.746-1.277,2.868-2.365,6.364c-1.09,3.498-1.634,5.59-1.634,6.278c0,0.172,0.028,0.417,0.086,0.731
		c0.056,0.316,0.086,0.559,0.086,0.731c0,0.574-0.545,1.763-1.634,3.569c-1.09,1.806-1.634,3.139-1.634,3.999
		c-0.058,0.115-0.116,0.258-0.172,0.43c-0.288,0.288-0.688,0.718-1.204,1.29c-0.344,0.746-0.774,1.892-1.29,3.44
		c0.057,0.172,0.129,0.503,0.215,0.989c0.086,0.488,0.129,0.847,0.129,1.075c0,0.172-0.116,0.43-0.344,0.774
		c-0.574,0.975-1.09,1.605-1.548,1.892c-0.459,0.288-1.233,0.43-2.322,0.43c-0.574,0-1.089,0-1.548,0
		c-0.402,0.4-0.746,0.602-1.032,0.602c-0.23,0-0.46-0.173-0.688-0.518c-0.23-0.345-0.46-0.519-0.688-0.519
		c-0.172-0.344-0.273-0.848-0.301-1.51c-0.029-0.661-0.215-2.101-0.559-4.316c-0.344-2.216-0.602-3.496-0.774-3.842
		c-0.402-1.094-0.602-1.812-0.602-2.158v-0.864c-0.288-1.035-0.545-2.589-0.774-4.661V50.45l0.602-0.864
		c-0.116-0.631-0.316-1.61-0.602-2.935c-0.344,0.801-0.516,2.057-0.516,3.769c0,0.972-0.545,2.342-1.634,4.113
		c-1.09,1.771-1.634,3.112-1.634,4.026c0,0.229-0.229,0.543-0.688,0.942c-0.746,0.686-1.405,2.056-1.978,4.112l0.258,1.886
		c0.056,0.056,0.086,0.17,0.086,0.342c0,0.686-0.473,1.357-1.419,2.013c-0.946,0.657-1.792,0.985-2.537,0.985
		c-0.516,0-1.09,0-1.72,0c-0.401,0.4-0.746,0.602-1.032,0.602c-0.23,0-0.459-0.173-0.688-0.516c-0.23-0.344-0.417-0.545-0.559-0.604
		c-0.144-0.056-0.402-1.091-0.774-3.101c-0.374-2.01-0.602-3.188-0.688-3.531c-0.086-0.344-0.129-0.977-0.129-1.896
		c0-0.401-0.144-0.903-0.43-1.506c-0.288-0.604-0.43-1.106-0.43-1.508c0-0.23,0.028-0.518,0.086-0.861c0-0.344,0-0.604,0-0.775
		c0-0.459-0.144-1.076-0.43-1.852c-0.288-0.775-0.43-1.394-0.43-1.853c0-0.287,0.2-0.89,0.602-1.809c0-0.401-0.086-1.149-0.258-2.24
		c-0.116-0.918-0.172-1.664-0.172-2.239s-0.202-1.379-0.602-2.412c-0.402-1.033-0.602-1.837-0.602-2.412
		c0-0.229,0.056-0.588,0.172-1.078c0.114-0.488,0.172-0.875,0.172-1.162s-0.129-0.732-0.387-1.336
		c-0.258-0.602-0.387-1.076-0.387-1.42c0-0.172,0.028-0.502,0.086-0.992c0.057-0.488,0.086-0.846,0.086-1.076l-0.086-0.689
		c-0.516-0.688-0.774-1.003-0.774-0.947c0-0.114,0.086-0.316,0.258-0.604c0.287-1.147,0.401-1.98,0.344-2.498l0.172-0.258
		l0.086-0.604c0-0.574-0.043-1.392-0.129-2.455c-0.086-1.062-0.129-1.852-0.129-2.369c0-1.837,0.917-3.847,2.752-6.029
		c-0.116,0.917-0.172,1.605-0.172,2.064c0,0.631,0.114,0.946,0.344,0.946c0.458,0,1.347-1.232,2.666-3.698
		c0.802-1.49,1.604-3.01,2.408-4.558c0.745-1.032,1.892-2.006,3.44-2.924c-0.746,0.746-1.449,2.193-2.107,4.343
		c-0.66,2.15-0.989,3.827-0.989,5.031c0,1.204,0.287,1.806,0.86,1.806c0.458,0,1.032-0.314,1.72-0.946
		c0.229,0.803,0.344,1.577,0.344,2.322c0,1.434-0.718,3.698-2.15,6.794l0.172,1.978c0.056,0,0.086-0.028,0.086-0.086
		c-0.23,0.516-0.374,1.348-0.43,2.494c0.057,1.434,0.028,3.583-0.086,6.45c-0.115,0.288-0.288,0.774-0.516,1.462v0.086
		c-0.058,0.229-0.086,0.459-0.086,0.688c0,0.516,0.186,1.247,0.559,2.193c0.372,0.946,0.559,1.649,0.559,2.107
		c0,0.344-0.086,0.832-0.258,1.462c-0.172,0.632-0.258,1.118-0.258,1.462c0,0.288,0.086,0.718,0.258,1.29
		c0.172,0.574,0.258,1.004,0.258,1.29c0,0.23-0.073,0.574-0.215,1.032c-0.144,0.459-0.215,0.803-0.215,1.032
		c0,0.172,0,0.402,0,0.688c0.573-1.376,1.146-2.752,1.72-4.128c0.688-1.662,1.032-3.066,1.032-4.214l-0.086-0.172
		c0.114-1.204,0.387-2.464,0.817-3.784c0.43-1.318,0.645-2.752,0.645-4.3c0-0.63,0.229-1.433,0.688-2.408
		c0.573-1.26,0.889-2.064,0.946-2.408v-0.43c-0.058-0.573,0.286-1.604,1.032-3.096c-0.459-2.292-0.688-4.07-0.688-5.332
		c0-2.752,1.548-5.56,4.644-8.428c-0.688,0.976-1.032,2.266-1.032,3.87c0,1.491,0.516,2.236,1.548,2.236
		c0.688-1.949,1.604-3.44,2.752-4.472c0.114,1.492,0.372,2.236,0.774,2.236c0.573,0,1.175-0.802,1.806-2.408
		c0.516-1.376,0.774-2.408,0.774-3.096s0.028-1.72,0.086-3.096c0.057-1.376,0.086-2.408,0.086-3.096
		c0.114,1.262,0.544,3.498,1.29,6.708c0.688,2.868,1.032,5.132,1.032,6.794c0,2.18-0.459,4.186-1.376,6.02
		c-0.172,0.344-0.545,0.804-1.118,1.376c0.114,0.288,0.172,0.774,0.172,1.462c0,4.358-0.115,7.482-0.344,9.374
		c-0.172,0.288-0.374,0.746-0.602,1.376v0.172c-0.058,0.172-0.086,0.374-0.086,0.602c0,0.516,0.186,1.276,0.559,2.279
		c0.372,1.004,0.559,1.792,0.559,2.365c0,0.288-0.086,0.688-0.258,1.204s-0.258,0.918-0.258,1.204c0,0.344,0.086,0.817,0.258,1.419
		s0.258,1.075,0.258,1.419c0,0.288-0.073,0.731-0.215,1.333c-0.144,0.602-0.215,1.075-0.215,1.419c0.86-1.72,1.72-4.07,2.58-7.052
		c0.172-1.892,0.63-4.013,1.376-6.364c0.056-0.172,0.086-1.26,0.086-3.268c0-0.287,0.501-1.763,1.505-4.429
		c1.002-2.666,1.591-4.171,1.763-4.515l-0.086-0.086c-0.116-0.458-0.172-1.49-0.172-3.096c0-1.432,0.487-2.494,1.462-3.182
		c1.376-0.974,2.178-1.72,2.408-2.236c0,2.294,0.43,3.44,1.29,3.44c0.572,0,1.131-0.387,1.677-1.161
		c0.544-0.774,0.873-1.476,0.989-2.107c-0.058,0.288-0.086-0.63-0.086-2.752C54.191,14.631,56.112,12.539,59.953,10.531z
		 M19.706,5.285c-0.574,0.746-0.86,1.548-0.86,2.408c0,0.402,0.057,0.933,0.172,1.591c0.114,0.66,0.172,1.161,0.172,1.505
		c0,1.262-0.718,2.352-2.15,3.268c0-0.516,0-1.032,0-1.548c0-0.4-0.086-1.017-0.258-1.849c-0.172-0.83-0.258-1.475-0.258-1.935
		c0-1.146,0.974-2.292,2.924-3.44H19.706z M38.54,8.553c-0.402,0.516-0.602,1.118-0.602,1.806c0,0.23,0,0.574,0,1.032
		c0,0.46,0,0.804,0,1.032c0,0.86-0.434,1.606-1.299,2.236h-0.077c0-0.344,0-0.688,0-1.032c0-0.344-0.043-0.802-0.129-1.376
		c-0.086-0.573-0.129-1.002-0.129-1.29c0-0.802,0.688-1.604,2.064-2.408H38.54z M53.159,8.295c-0.574,0.746-0.86,1.548-0.86,2.408
		c0,0.402,0.057,0.933,0.172,1.591c0.114,0.66,0.172,1.161,0.172,1.505c0,1.262-0.718,2.352-2.15,3.268c0-0.516,0-1.032,0-1.548
		c0-0.4-0.086-1.018-0.258-1.849c-0.172-0.831-0.258-1.476-0.258-1.935c0-1.146,0.974-2.292,2.924-3.44H53.159z"/>
	<path fill="#FFFFFF" d="M86.27,21.711c0,1.319-0.847,3.842-2.537,7.568c-1.692,3.728-2.537,6.164-2.537,7.31
		c0,0.574,0.206,0.86,0.617,0.86c0.529,0,1.059-0.301,1.588-0.903s0.881-1.161,1.059-1.677c0.117,0.746,0.176,1.492,0.176,2.236
		c0,2.122-0.631,4.644-1.892,7.568c-1.95,4.416-2.981,6.852-3.096,7.31c0-0.057,0,1.606,0,4.988c0,0.746-0.101,1.219-0.301,1.419
		c-0.202,0.202-0.301,0.473-0.301,0.817c0,0.402,0.099,0.976,0.301,1.72c0.2,0.746,0.301,1.29,0.301,1.634
		c0,0.344-0.235,1.032-0.706,2.064c-0.059,1.032-0.207,1.707-0.442,2.021c-0.236,0.315-0.795,0.617-1.677,0.903
		c-0.883,0.804-1.412,1.204-1.588,1.204c-0.295,0-0.634-0.258-1.016-0.774c-0.383-0.516-0.663-0.802-0.839-0.86
		c-0.177-0.286-0.324-0.83-0.44-1.634c0.229-0.172,0.344-0.314,0.344-0.43c0-0.86-0.124-2.178-0.371-3.956
		c-0.248-1.776-0.37-3.124-0.37-4.042c0-0.286-0.078-0.688-0.232-1.204c-0.155-0.516-0.231-0.917-0.231-1.204
		c0-0.344,0.057-0.86,0.172-1.548c-0.688,0.459-1.548,1.176-2.58,2.15c-0.288,0.917-0.66,1.233-1.118,0.946
		c-1.319,0.058-2.093,0.459-2.322,1.204l-0.344,0.172c-0.229,0.459-0.602,1.09-1.118,1.892c-0.516,0.172-1.118,0.574-1.806,1.204
		c-0.23,0-0.459,0.144-0.688,0.43c-0.23,0.288-0.374,0.574-0.43,0.86l-0.172,0.172c-0.288,0.688-0.602,1.72-0.946,3.096
		c0.057,0.058,0.086,0.172,0.086,0.344c0,0.116-0.058,0.344-0.172,0.688c-0.229,0.804-0.488,1.563-0.774,2.279
		c-0.288,0.716-1.004,1.075-2.15,1.075c-0.344,0-0.804-0.258-1.376-0.774c-0.574-0.516-0.86-0.888-0.86-1.118
		c0-0.114,0.086-0.602,0.258-1.462c0-0.056,0-0.888,0-2.494c0-0.344,0.114-0.903,0.344-1.677c0.228-0.774,0.344-1.361,0.344-1.763
		c0-0.4-0.058-1.017-0.172-1.849c-0.116-0.831-0.172-1.447-0.172-1.849c0-0.688,0.329-2.107,0.989-4.257
		c0.659-2.15,0.989-3.741,0.989-4.773c0-1.376-0.46-3.425-1.376-6.149c-0.917-2.722-1.376-4.801-1.376-6.235
		c0-1.948,0.63-3.468,1.892-4.558c-0.058,0.344-0.086,0.688-0.086,1.032c0,1.72,0.486,2.58,1.462,2.58
		c0.4,0,0.917-0.201,1.548-0.602c0-1.433,0.458-2.838,1.376-4.214c0.516-6.822,3.64-11.208,9.374-13.158
		c-1.032,1.147-1.548,2.093-1.548,2.838c0,0.746,0.573,1.118,1.72,1.118c2.006,0,3.87-0.86,5.59-2.58
		c1.72-1.72,2.58-3.583,2.58-5.59c0-0.975-0.172-1.978-0.516-3.01c1.376,1.09,2.236,2.38,2.58,3.87
		c0.114,1.664,0.229,3.326,0.344,4.988c0.286,2.696,0.744,4.042,1.376,4.042c0.516,0,0.946-0.43,1.29-1.29
		c0.344-0.63,0.516-1.26,0.516-1.892c0-0.63-0.058-1.347-0.172-2.15C85.724,18.473,86.27,20.163,86.27,21.711z M73.284,41.319
		c0-0.458-0.129-1.118-0.387-1.978c-0.258-0.86-0.387-1.548-0.387-2.064c0-0.344,0-0.86,0-1.548s0-1.204,0-1.548
		c0-0.572-0.057-1.088-0.169-1.548c-0.68,0.746-1.615,1.95-2.804,3.612c-0.511,0.86-1.304,2.997-2.378,6.407
		c-1.077,3.412-1.614,5.519-1.614,6.321l0.086,0.086c0.229-0.057,0.602-0.143,1.118-0.258c-0.115,0-0.172-0.028-0.172-0.086
		c0.169-0.057,0.48-0.086,0.934-0.086c-0.34,0,0.084-0.143,1.272-0.43c0.169,0.116,0.395,0.172,0.679,0.172
		c0,0.115,0.056,0.172,0.169,0.172c0.51,0,1.118-0.271,1.825-0.817c0.707-0.544,1.173-0.874,1.4-0.989h0.085
		c0-0.286-0.073-0.745-0.215-1.376c-0.144-0.63-0.215-1.088-0.215-1.376c0-0.286,0.129-0.716,0.387-1.29
		C73.155,42.123,73.284,41.663,73.284,41.319z M67.952,10.187c-0.459,0.516-0.688,1.09-0.688,1.72c0,0.23,0.043,0.589,0.129,1.075
		c0.086,0.488,0.129,0.875,0.129,1.161c0,0.803-0.434,1.52-1.3,2.15H66.06c0-0.4,0-0.802,0-1.204c0-0.286-0.058-0.702-0.172-1.247
		c-0.115-0.544-0.172-0.959-0.172-1.247c0-0.802,0.688-1.604,2.064-2.408H67.952z M75.692,4.597
		c-0.632,0.746-0.946,1.548-0.946,2.408c0,0.402,0.057,0.933,0.172,1.591c0.114,0.66,0.172,1.161,0.172,1.505
		c0,1.262-0.663,2.352-1.985,3.268H72.94c0-0.516,0-1.032,0-1.548c0-0.4-0.073-1.017-0.215-1.849
		c-0.144-0.83-0.215-1.475-0.215-1.935c0-1.146,0.974-2.292,2.924-3.44H75.692z"/>
	<path fill="#FFFFFF" d="M118.776,26.183c0,2.122-0.287,4.128-0.86,6.02l0.344,0.516v0.172c0,0.288,0,0.574,0,0.86
		c0,0.976-0.602,1.72-1.806,2.236c-0.172,0.172-0.43,0.516-0.774,1.032l-0.086,0.516c-0.402,0.46-1.004,1.118-1.806,1.978
		c-0.288,0.172-0.631,0.46-1.032,0.86c-0.402,0.401-0.946,1.003-1.634,1.806l-0.344,0.688c-0.344,0.288-0.89,0.66-1.634,1.118
		l-0.172,0.344c-0.172,0.172-0.43,0.287-0.774,0.344c-0.23,0.402-0.516,0.602-0.86,0.602c-0.229,0.288-0.43,0.488-0.602,0.602
		c0,0.344-0.288,0.66-0.86,0.946v0.086c0.229,0.23,0.573,0.488,1.032,0.774l0.172,0.344v0.43l0.086,0.602
		c-0.115,0.574,0.057,1.176,0.516,1.806v0.516l0.258,0.344v0.602l0.086,0.172c0.114,0.058,0.287,0.172,0.516,0.344
		c0.057,0.288,0.172,0.546,0.344,0.774v0.344c0.286,0.459,0.372,1.19,0.258,2.193c-0.116,1.004-0.029,1.649,0.258,1.935v0.172
		c0,0.516,0.228,0.946,0.688,1.29c0,0.288,0.056,0.516,0.172,0.688l0.258,0.086l0.172,0.43l0.258,0.344v0.172l0.172,0.172
		c0,0.459,0.114,1.09,0.344,1.892v0.172c0,0.172,0.028,0.488,0.086,0.946l0.258,0.172c0.458,0.402,1.118,1.09,1.978,2.064v0.258
		c0,0.23-0.086,0.516-0.258,0.86v0.344c-0.23,0.23-0.344,0.43-0.344,0.602l0.086,0.258l-0.258,0.172l-0.172,0.344l-0.344,0.086
		l-0.172,0.172h-0.258h-0.086c-0.115,0.229-0.201,0.487-0.258,0.774l-0.258,0.086l-0.086,0.172l0.086,0.258l-0.516,0.344
		l-0.086,0.344c-0.116,0.057-0.258,0.086-0.43,0.086s-0.402-0.058-0.688-0.172c-0.574,0.057-0.903-0.187-0.989-0.731
		c-0.086-0.545-0.159-0.875-0.215-0.989c-0.516-0.288-1.262-0.688-2.236-1.204c-0.172-0.229-0.316-0.917-0.43-2.064l-0.258-0.43
		c-0.402-0.172-0.976-0.458-1.72-0.86c-0.344-0.057-0.559-0.372-0.645-0.946c-0.086-0.572-0.158-1.088-0.215-1.548l0.086-0.344
		c-0.115-0.057-0.258-0.314-0.43-0.774c-0.172-0.114-0.43-0.258-0.774-0.43h-0.344c-0.288-0.114-0.66-0.458-1.118-1.032v-1.462
		c-0.172-0.172-0.374-0.344-0.602-0.516l-0.344-0.602c-0.288-0.056-0.488-0.888-0.602-2.494v-0.516
		c-0.23-0.229-0.374-0.486-0.43-0.774h-0.172l-0.172-0.086l-0.258-0.602H97.62c-0.167-0.286-0.361-0.486-0.583-0.602
		c-0.168,0.288-0.405,0.688-0.709,1.204c-0.307,0.516-0.445,1.462-0.417,2.838c0.027,1.376-0.153,2.38-0.542,3.01
		c-0.333,0.116-0.5,0.43-0.5,0.946c0,0.229,0,0.531,0,0.903c0,0.374,0,0.645,0,0.817c0,0.574-0.574,2.15-1.72,4.73
		c-0.058,0.058-0.574,0.258-1.548,0.602c-0.688,0.688-1.262,1.032-1.72,1.032l-0.43-0.086c-0.116-0.344-0.402-0.774-0.86-1.29
		c-0.116-0.229-0.144-0.486-0.086-0.774v-0.688c0.057-0.172,0.086-0.745,0.086-1.72c0-0.63,0.056-1.591,0.172-2.881
		c0.114-1.29,0.172-2.279,0.172-2.967c0-0.172-0.043-0.458-0.129-0.86c-0.086-0.4-0.129-0.716-0.129-0.946
		c0-0.286,0.099-0.745,0.301-1.376c0.2-0.63,0.301-1.088,0.301-1.376c0-0.229-0.043-0.544-0.129-0.946
		c-0.086-0.4-0.129-0.716-0.129-0.946c0-0.573,0.114-1.204,0.344-1.892c0.572-0.458,0.86-0.831,0.86-1.118
		c-0.058,0.918-0.086,0.402-0.086-1.548c0-0.344,0.114-0.831,0.344-1.462c0.229-0.63,0.344-1.118,0.344-1.462
		c0-0.344-0.086-0.845-0.258-1.505c-0.172-0.658-0.258-1.161-0.258-1.505c0-0.458,0.143-1.045,0.43-1.763
		c0.286-0.716,0.43-1.218,0.43-1.505c0-0.229-0.029-0.544-0.086-0.946c-0.058-0.4-0.086-0.688-0.086-0.86
		c-0.402,0.288-0.789,0.588-1.161,0.903c-0.374,0.316-0.846,0.445-1.419,0.387l-0.344,0.258c-0.23,0.23-0.516,0.574-0.86,1.032
		l-0.172,0.086h-0.258c-0.288,0.172-0.774,0.258-1.462,0.258c-0.804,0-1.262-0.143-1.376-0.43c-0.116-0.572-0.258-0.946-0.43-1.118
		v0.172l-0.172-0.344l0.172-1.548c-0.057-0.056-0.243-0.258-0.559-0.602c-0.314-0.344-0.473-0.602-0.473-0.774
		c0-0.86,0.316-1.519,0.946-1.978c0-0.63,0.544-1.318,1.634-2.064h0.172c0.802-1.26,1.548-2.952,2.236-5.074
		c0.63-1.948,1.232-3.324,1.806-4.128c0.974-1.318,2.55-2.464,4.73-3.44c-1.892,3.556-2.838,5.304-2.838,5.246
		c0,0.688,0.716,1.032,2.15,1.032c1.604,0,3.109-1.075,4.515-3.225c1.404-2.15,2.766-4.285,4.085-6.407
		c1.892-2.522,4.099-4.07,6.622-4.644c-2.236,1.434-3.354,3.01-3.354,4.73c0,1.032,0.4,1.907,1.204,2.623
		c0.802,0.718,1.72,1.075,2.752,1.075c2.35,0,3.784-1.634,4.3-4.902c0.572,0.746,0.86,1.835,0.86,3.268
		c0,0.632-0.073,1.563-0.215,2.795c-0.144,1.233-0.215,2.165-0.215,2.795c0,1.376,0.516,2.064,1.548,2.064
		c1.604,0,2.494-1.29,2.666-3.87C118.546,22.342,118.776,24.234,118.776,26.183z M99.168,8.123
		c-0.631,0.746-0.946,1.548-0.946,2.408c0,0.402,0.056,0.933,0.172,1.591c0.114,0.66,0.172,1.161,0.172,1.505
		c0,1.262-0.688,2.352-2.064,3.268c0-0.516,0-1.032,0-1.548c0-0.4-0.086-1.017-0.258-1.849c-0.172-0.831-0.258-1.476-0.258-1.935
		c0-1.146,0.974-2.292,2.924-3.44H99.168z M109.488,33.837c-0.058-0.114-0.116-0.286-0.172-0.516l-0.086-0.086h-0.258
		c-0.172,0-0.488-0.086-0.946-0.258l-0.172-0.344c-0.172-0.056-0.774-0.086-1.806-0.086l-0.602-0.258
		c-0.288,0.172-0.402,0.288-0.344,0.344c-0.516,0.23-0.688,0.23-0.516,0c-0.172,0.172-0.631,0.273-1.376,0.301
		c-0.746,0.029-1.233,0.129-1.462,0.301h-0.258c-0.804,0.402-1.406,1.548-1.806,3.44c-0.288,1.434-0.545,2.838-0.774,4.214
		c-0.058,0.116-0.23,0.331-0.516,0.645c-0.288,0.316-0.402,0.531-0.344,0.645c-0.288,0.23-0.43,0.574-0.43,1.032
		c0,0.229,0.071,0.602,0.215,1.118c0.143,0.516,0.215,0.917,0.215,1.204h0.344c0.286-0.286,0.559-0.458,0.817-0.516
		c0.258-0.057,0.716-0.387,1.376-0.989c0.659-0.602,1.075-1.075,1.247-1.419h0.344l0.258-0.086l0.344-0.344
		c0.229-0.056,0.572-0.229,1.032-0.516c0.286-1.318,1.146-2.465,2.58-3.44h0.086h0.258l0.688-1.032l0.172-0.86l0.258-0.344
		c0.344-0.114,0.688-0.258,1.032-0.43C109.287,34.984,109.488,34.411,109.488,33.837z"/>
	<path fill="#FFFFFF" d="M154.293,24.893c0,0.115-0.086,0.473-0.258,1.075s-0.258,1.104-0.258,1.505c0,1.32-0.144,2.294-0.43,2.924
		c-0.344,0.86-0.674,1.707-0.989,2.537c-0.316,0.832-0.617,2.795-0.903,5.891c-0.288,2.868-0.43,4.902-0.43,6.106
		c0,0.23,0.086,0.559,0.258,0.989s0.258,0.761,0.258,0.989c0,0.746-0.301,1.879-0.903,3.397c-0.602,1.52-0.903,2.653-0.903,3.397
		c0,0.058,0,0.172,0,0.344s0,0.288,0,0.344c0,0.288-0.123,0.602-0.364,0.946c-0.243,0.344-0.391,0.602-0.445,0.774
		c-0.271,1.204-0.459,2.352-0.567,3.44l0.669,1.634c0.126,0.115,0.191,0.229,0.191,0.344c-0.574,2.466-2.036,3.698-4.386,3.698
		c-0.746,0-1.606-0.63-2.58-1.892c0.095-0.63,0.239-1.548,0.43-2.752c0-0.286,0-0.602,0-0.946c0-0.344,0.071-0.873,0.215-1.591
		c0.142-0.716,0.215-1.247,0.215-1.591c0-0.458-0.073-1.118-0.215-1.978c-0.144-0.86-0.215-1.49-0.215-1.892
		c0-0.573,0.157-1.361,0.473-2.365c0.314-1.002,0.473-1.791,0.473-2.365l0.258-2.322c-2.122,3.04-3.182,4.96-3.182,5.762
		c0,0.229-0.258,0.531-0.774,0.903c-0.516,0.374-1.204,1.591-2.064,3.655l0.172,1.72c0.057,0.058,0.086,0.144,0.086,0.258
		c0,0.344-0.273,0.789-0.817,1.333c-0.545,0.545-1.019,0.875-1.419,0.989c0.344,0.746,0.516,1.72,0.516,2.924
		c0,2.524-0.718,3.67-2.15,3.44l-0.172,0.172v0.258c-0.339,0.172-0.62,0.258-0.844,0.258c-0.451,0-0.874-0.287-1.267-0.86
		c-0.395-0.286-0.647-0.716-0.759-1.29c-0.056-0.916-0.113-1.432-0.169-1.548c-0.732-0.114-1.323-1.376-1.773-3.784
		c-0.45-0.86-0.985-2.236-1.604-4.128c-0.282-2.064-0.9-5.13-1.857-9.202c0,0.516-0.169,1.262-0.507,2.236
		c-0.338,0.976-0.506,1.72-0.506,2.236c0,0.116,0,0.344,0,0.688c0,0.344,0,0.602,0,0.774c0,0.574-0.144,1.09-0.43,1.548
		c-0.402,0.631-0.602,1.75-0.602,3.354c-0.058,2.064-0.144,3.297-0.258,3.698c-0.288,0.116-0.43,0.459-0.43,1.032
		c0,0.288,0.043,0.66,0.129,1.118c0.086,0.46,0.129,0.804,0.129,1.032c0,0.516-0.171,1.176-0.509,1.978
		c-0.34,0.804-0.566,1.348-0.679,1.634c-0.113,0.288-0.226,0.66-0.339,1.118c-0.34,0.057-0.849,0.229-1.528,0.516
		c-0.906,0.744-1.414,1.118-1.526,1.118c-0.34,0-0.595-0.244-0.765-0.731c-0.169-0.488-0.368-0.774-0.594-0.86
		c-0.226-0.086-0.339-0.271-0.339-0.559c0-0.172,0.057-0.43,0.172-0.774c0.114-0.344,0.172-0.602,0.172-0.774v-6.708
		c0-0.344-0.058-0.817-0.172-1.419c-0.115-0.602-0.172-1.045-0.172-1.333c0-0.229,0-0.616,0-1.161c0-0.544,0-0.959,0-1.247
		c0-0.286,0-0.759,0-1.419c0-0.658,0-1.131,0-1.419c0-0.516,0.057-1.002,0.172-1.462l0.688-0.688c0-0.344-0.029-0.845-0.086-1.505
		c-0.058-0.659-0.086-1.132-0.086-1.419c0-0.286,0.086-0.701,0.258-1.247c0.172-0.544,0.258-0.959,0.258-1.247
		c0-0.344-0.101-0.874-0.301-1.591c-0.202-0.716-0.301-1.247-0.301-1.591c0-0.458,0.114-1.088,0.344-1.892
		c0.228-0.802,0.344-1.404,0.344-1.806c0-0.172-0.058-0.458-0.172-0.86c-0.116-0.4-0.172-0.716-0.172-0.946
		c0-0.114,0.2-1.204,0.602-3.268l-0.688-1.032c0-0.172,0.109-0.372,0.33-0.602l0.821-2.58c0.328,0,0.739-0.114,1.234-0.344
		l0.082-0.43c0.383-0.573,0.794-1.032,1.232-1.376c0-0.63,0-1.175,0-1.634c0-1.146,0.486-2.121,1.462-2.924
		c1.376-0.974,2.207-1.72,2.494-2.236c0,2.294,0.4,3.44,1.204,3.44c0.516,0,1.075-0.401,1.677-1.204
		c0.602-0.802,0.931-1.49,0.989-2.064c0,0.172,0-0.688,0-2.58c0-2.292,1.92-4.442,5.762-6.45c-1.778,1.664-2.666,3.784-2.666,6.364
		c0,0.746,0.114,1.864,0.344,3.354c0.229,1.491,0.344,2.609,0.344,3.354c0,0.803-0.374,1.892-1.118,3.268
		c-0.746,1.376-1.118,2.494-1.118,3.354c0,1.032,0.372,1.548,1.118,1.548c1.146,0,2.408-1.204,3.784-3.612
		c0.229,1.204,0.344,2.236,0.344,3.096c0,1.32-0.459,3.154-1.376,5.504c-0.918,2.352-1.376,4.158-1.376,5.418
		c0,2.064,0.486,3.096,1.462,3.096c0.229,0,0.458-0.086,0.688-0.258c0.229-0.172,0.645-0.946,1.247-2.322s0.931-2.236,0.989-2.58
		c0-0.802,0.172-1.978,0.516-3.526c0.344-0.802,0.716-1.576,1.118-2.322c0.228-0.573,0.344-1.462,0.344-2.666
		c0-0.688,0.314-1.476,0.946-2.365c0.63-0.888,0.974-1.562,1.032-2.021c0.057-0.802,0.229-1.519,0.516-2.15
		c-0.058-0.516-0.086-1.032-0.086-1.548c0-2.236,1.002-4.472,3.01-6.708c-0.172,0.917-0.258,1.605-0.258,2.064
		c0,0.631,0.114,0.946,0.344,0.946c0.458,0,1.347-1.232,2.666-3.698c0.86-1.49,1.69-3.01,2.494-4.558
		c0.802-1.032,1.978-2.006,3.526-2.924c-0.803,0.688-1.548,2.122-2.236,4.3c-0.688,2.18-1.032,3.87-1.032,5.074
		c0,1.204,0.314,1.806,0.946,1.806c0.458,0,1.06-0.314,1.806-0.946c0.114,0.631,0.172,1.29,0.172,1.978
		c0,0.86-0.086,1.72-0.258,2.58C154.006,24.119,154.293,24.606,154.293,24.893z M149.219,4.855c-0.574,0.746-0.86,1.548-0.86,2.408
		c0,0.344,0.071,0.86,0.215,1.548c0.143,0.688,0.215,1.204,0.215,1.548c0,1.262-0.717,2.352-2.15,3.268c0-0.516,0-1.002,0-1.462
		c0-0.458-0.101-1.118-0.301-1.978c-0.202-0.86-0.301-1.49-0.301-1.892c0-1.146,1.002-2.292,3.01-3.44H149.219z"/>
	<path fill="#FFFFFF" d="M203.87,54.08c0,10.739-7.439,15.419-14.459,15.419c-7.859,0-13.919-5.76-13.919-14.939
		c0-9.72,6.36-15.419,14.399-15.419C198.23,39.14,203.87,45.2,203.87,54.08z M180.831,54.379c0,6.36,3.66,11.16,8.82,11.16
		c5.04,0,8.819-4.74,8.819-11.28c0-4.919-2.459-11.159-8.7-11.159C183.531,43.1,180.831,48.86,180.831,54.379z"/>
	<path fill="#FFFFFF" d="M211.071,68.839V43.82h-4.08V39.8h4.08v-1.38c0-4.08,0.9-7.799,3.359-10.14c1.98-1.92,4.62-2.7,7.08-2.7
		c1.86,0,3.479,0.42,4.5,0.84l-0.72,4.08c-0.78-0.36-1.86-0.66-3.36-0.66c-4.5,0-5.64,3.96-5.64,8.4v1.56h7.02v4.02h-7.02v25.019
		H211.071z"/>
	<path fill="#FFFFFF" d="M277.827,68.839l-9.572-22.032l-0.608,0.76v21.272h-5.317c-0.152,0-2.355,0-6.534,0.076
		c-1.596,0-2.507,0-2.887-0.076V18.393c-0.836-0.988-1.216-1.976-1.216-2.811c0-1.292,0.456-2.811,1.443-4.559
		c1.443-2.507,3.267-3.723,5.622-3.495c0.684,1.14,2.659,2.583,5.774,4.179c2.279,1.139,3.419,3.267,3.419,6.381
		c0,1.14-0.305,3.723-0.305,4.862v1.444c0,0.38,0.076,1.14,0.305,2.127l2.127-2.127c0.836-0.684,1.747-1.14,2.583-1.368
		c1.443-4.179,2.507-6.914,3.115-8.053c1.823-3.799,3.723-5.698,5.697-5.698c0.305,0,1.292,0.456,1.672,0.456
		c0.076,0,0.607-0.38,1.596-1.14c0.987-0.835,1.975-1.215,2.811-1.215c2.203,0,3.646,2.051,4.331,6.154h1.291
		c-0.836,2.887-2.279,6.002-4.33,9.42c-1.52,2.507-2.279,5.015-2.279,7.446l0.228,0.76c-2.051,0-2.507,0.379-3.419,2.279
		l-1.899,4.331l13.6,31.073H277.827z M266.052,21.127c0-0.076,0-1.063,0.075-2.963v-2.051l-0.228-1.899
		c-0.076-0.228-1.14-0.835-3.19-1.748c-2.052-0.987-3.419-2.279-4.103-4.026h-0.912c-0.607,0-1.063,0.152-1.367,0.532
		c-0.684,0.988-1.596,2.279-2.659,3.875c-0.38,0.532-0.608,1.14-0.608,1.748c0,0.76,0.76,2.431,2.204,4.938
		c1.443,2.507,2.507,3.798,3.038,3.798l1.216-0.152c0.684,0,1.292,0.532,1.899,1.671c0.532,1.444,1.14,2.887,1.747,4.331
		c0.532-0.38,1.064-1.063,1.52-2.051c0.685-2.051,1.14-3.267,1.368-3.799V21.127z M256.479,12.011c0-0.608,0.304-0.988,0.912-1.216
		c0.684,0,1.14,0.38,1.367,1.216H256.479z M287.248,8.592c-0.532,0-1.216,0.456-1.899,1.292c-0.684,0.836-1.291,1.292-1.747,1.368
		c-0.912,0.076-2.659-0.456-3.039-0.456c-1.063,0-2.355,1.748-3.951,5.318c-1.367,3.115-2.278,5.698-2.734,7.825
		c0,0.988-0.684,1.52-1.976,1.671h-0.607c-1.596,0-2.508,1.823-2.735,5.546c-0.076,2.051,0.607,4.71,2.127,7.825l2.659-8.433
		c0.836-2.735,1.748-4.482,2.583-5.242c0.76,0.608,1.443,0.912,1.976,0.912c0.228,0,0.912-1.063,1.899-3.267
		c1.063-2.203,2.051-3.343,3.039-3.495l2.431,9.269l0.912-2.203c-0.076-0.304-0.152-0.607-0.152-0.835
		c0-1.216,0.76-3.343,2.203-6.458c1.52-3.115,2.279-4.938,2.279-5.546C290.515,10.263,289.451,8.592,287.248,8.592z M286.792,10.947
		L287.4,9.58l0.455,0.152l0.456,1.368L286.792,10.947z"/>
	<path fill="#FFFFFF" d="M338.078,42.932c0,10.864-1.899,18.157-5.773,21.88c-2.735,2.659-7.37,4.026-13.827,4.026
		c-12.46,0-18.69-7.75-18.69-23.248c0-5.242,0.076-8.585,0.305-9.952c0-5.242,0.684-9.193,1.975-12.004
		c0-0.456-0.228-1.444-0.684-2.963c-0.456-1.52-0.684-2.583-0.684-3.191c0-1.14,0.607-2.431,1.899-3.723
		c1.292-1.368,2.507-2.051,3.646-2.051c0.532,0.228,0.912,0.304,1.216,0.304c1.14-1.14,2.431-1.671,3.875-1.671
		c1.595,0,2.431,1.823,2.507,1.823c0.532,0.076,1.367-0.456,2.507-1.443s1.899-1.52,2.128-1.444
		c0.531,0.076,2.051,0.912,2.127,0.912c0.456,0,1.367-0.456,2.735-1.368c1.443-0.912,2.278-1.368,2.658-1.443
		c1.292,0,2.584,0.38,4.027,1.215c1.443,0.836,2.279,1.823,2.583,2.963c0.076,0.076,0.911,2.963,2.507,8.813
		c1.14,4.254,1.823,6.838,2.127,7.75C337.774,33.359,338.078,38.297,338.078,42.932z M333.976,20.899
		c-0.304-0.987-0.38-1.595-0.304-1.899c-0.76-0.379-1.292-1.595-1.672-3.57c-0.38-2.507-0.607-3.799-0.684-3.951
		c-0.228-0.532-1.14-1.216-2.734-1.899c-1.596-0.76-2.659-1.14-3.344-1.14c-0.684,0.76-1.291,1.52-1.975,2.279
		c-0.988,1.14-1.672,1.747-2.052,1.747c-0.076,0-1.14-1.823-2.431-1.823c-0.38,0-1.14,0.608-2.432,1.748
		c-1.216,1.14-2.051,1.671-2.507,1.747c-0.684-1.215-1.52-1.823-2.583-1.823c-0.38,0-1.14,0.228-2.432,0.684
		c-1.215,0.456-2.051,0.684-2.583,0.684l-0.911-0.304c-0.532,0.152-1.216,0.684-2.203,1.671c-0.912,0.987-1.368,1.671-1.368,2.127
		c-0.151,0.684,0.076,1.823,0.684,3.267c0.608,1.443,1.292,2.279,1.976,2.431c0.229,0.076,0.76-0.228,1.747-0.912
		c0.988-0.684,1.596-1.064,1.899-1.14c0.685,0,1.216,0.304,1.596,0.835c0.532-0.152,1.292-0.912,2.203-2.203
		c0.988-1.292,1.748-1.975,2.279-1.975c0.607,0,1.52,0.456,2.735,1.367s2.051,1.368,2.507,1.368c0.532,0,0.987-0.608,1.216-1.899
		c0.228-1.292,0.684-1.975,1.216-1.975c1.443,0,2.887,1.14,4.178,3.343c0.532,0.835,1.292,2.203,2.279,3.951
		c0.532-2.279,1.216-3.419,2.052-3.419c0.684,0,2.051,4.862,4.254,14.511l-0.304-8.812c0.456-0.38,0.684-0.988,0.684-1.672
		C334.888,23.787,334.508,22.647,333.976,20.899z M307.993,17.937c-0.229,0-0.532-0.152-0.76-0.38l-0.836-0.684l0.151-0.532
		c0.685,0,1.976,0.835,1.976,1.443C308.373,17.861,308.221,17.937,307.993,17.937z M322.352,24.242c0-1.215-0.304-1.823-0.987-1.823
		c-0.076,0-0.38,0.304-0.836,0.988s-0.836,0.988-1.216,0.988c-0.228,0.076-0.455-0.304-0.607-1.064
		c-0.152-0.835-0.304-1.292-0.532-1.367c-0.911-0.304-1.823,1.292-1.823,2.279v29.782c0.304-0.304,0.76-0.532,1.368-0.608
		c0.38,0,1.898,1.216,4.634,3.723V24.242z M317.718,55.392c-0.38,0.076-0.685,0.835-0.988,2.203c-0.228,1.14-0.38,1.976-0.38,2.583
		c0,0.684,0.076,1.292,0.304,1.748c0.152-0.076,0.305-0.076,0.532-0.076c0.76,0,1.52,0.532,2.279,1.671
		c0.304,0.456,0.684,1.216,1.14,2.204c0.228-1.14,0.531-2.811,0.911-5.015C321.592,58.658,320.376,56.835,317.718,55.392z
		 M326.834,14.822c-0.304,0.608-0.76,0.912-1.291,0.912l-0.305-0.152c-0.228-0.076-0.531-0.228-0.835-0.532l-0.684-1.671h0.304
		c0.228,0.38,0.684,0.759,1.367,1.215l1.672-0.76L326.834,14.822z"/>
	<path fill="#FFFFFF" d="M372.346,67.244c-3.343,1.063-6.686,1.595-10.104,1.595c-3.646,0-7.294-0.532-10.94-1.52
		c-5.242-1.443-7.825-3.571-7.825-6.306l-0.076-46.116c0-1.215,0.152-2.583,0.456-4.178c0.456-2.203,1.063-3.343,1.823-3.343
		c2.887,0,4.331,0.835,4.331,2.507c0,0.836,0.075,1.216,0.151,1.216c0.684-1.671,1.596-2.507,2.735-2.507
		c0.76,0,1.443,0.532,2.051,1.671c0.608,1.064,1.368,1.596,2.355,1.596c0.532,0,0.76,0.532,0.76,1.671v36.163l0.456,4.482
		c0.151-0.38,0.38-0.987,0.684-1.823c0.38-1.063,0.912-1.595,1.747-1.595c1.443,0,2.432,0.456,2.963,1.367
		c1.064,1.748,1.672,2.735,1.748,2.811v-40.19c0-0.456,0.531-1.52,1.671-3.267c1.14-1.748,1.899-2.659,2.279-2.659
		c2.583,0,3.875,0.532,3.875,1.671c0,1.443,0.228,2.203,0.76,2.279c0,0,0.228-0.304,0.76-0.912c0.531-0.684,0.911-0.988,1.216-1.064
		c0.76,0,1.443,0.912,2.127,2.659c0.607,1.596,0.911,2.811,0.911,3.723v43.837C379.259,63.673,376.98,65.8,372.346,67.244z
		 M354.492,12.086c-0.305-0.684-0.608-1.899-1.14-1.899c-0.988,0-1.672,0.304-1.976,0.987c-0.304,0.684-0.76,0.988-1.367,0.988
		c-0.836,0-1.444-0.38-1.672-1.215c0.076-0.304,0.152-0.532,0.152-0.76c-0.229-1.064-0.836-1.596-1.823-1.596
		c-0.912-0.152-1.52,1.14-1.748,3.875c0,0.532,0.304,1.899,0.304,2.431c-0.075,0.912-0.151,1.672-0.151,2.279
		c0.151,0.988,0.38,1.823,0.607,2.507c0.076,0.076,0.229,0.076,0.304,0.076c0-1.443,0.076-2.355,0.229-2.735
		c0.228-0.988,0.911-1.443,1.975-1.443c0.685,0,1.292,0.304,1.824,0.912c0.76,1.063,1.595,2.051,2.431,2.963
		c0.38,0.456,0.607,0.684,0.607,0.76l-0.151,0.76c0,0.456,0.228,0.988,0.607,1.671c0.532,0.912,0.76,1.443,0.836,1.671
		c0.228,0.532,0.304,0.76,0.38,0.836c0.684,0.152,0.987-0.304,1.063-1.368l0.304-10.561
		C355.327,12.999,354.796,12.619,354.492,12.086z M353.048,15.582c-0.38,0.076-1.595-0.456-1.519-0.836
		c0.075-0.304,0.228-0.456,0.607-0.456c0.987,0,1.52,0.304,1.52,0.987C353.656,15.354,353.428,15.505,353.048,15.582z
		 M363.381,54.784c-0.152-0.38-0.532-1.063-1.14-2.203h-0.912c-0.455,0-0.911,0.684-1.367,2.051
		c-0.532,1.595-0.912,2.431-0.987,2.507l1.747,3.875c0.228,0.076,0.607,0.608,1.14,1.747c0.531,1.064,1.063,1.596,1.443,1.596
		c0.836-3.647,1.216-5.85,1.216-6.61C364.521,57.367,364.141,56.379,363.381,54.784z M376.524,14.746
		c-0.229-1.595-0.152-2.051-0.456-1.975c-0.228,0-1.063,1.52-1.672,1.52c-1.595,0-3.114-1.671-2.734-3.191
		c0-0.608-0.456-0.836-1.443-0.76c-1.596,0.304-2.432,1.368-2.432,3.191c0,1.063,0.987,2.735,2.963,5.014
		c1.14,1.292,1.823,2.279,2.052,2.811c0.684,3.723,1.291,5.622,1.899,5.622c0.607,0,0.911-1.976,0.911-5.85
		c0-0.76,0.229-1.671,0.684-2.735l0.685-1.596C377.056,16.645,376.904,15.961,376.524,14.746z"/>
	<path fill="#FFFFFF" d="M413.831,68.839h-26.895V22.875c0-0.228-0.607-0.38-0.607-0.912c0-1.216-0.305-2.887-0.836-5.09
		c-0.532-2.203-0.836-3.799-0.836-4.71c0-2.507,2.127-4.634,4.635-4.634c0.607,0,1.747,0.608,3.343,1.823
		c1.671,1.14,2.659,1.748,2.887,1.748c0.836,0,1.443-0.532,1.823-1.52c0.456-0.076,1.443,0,3.039,0.304
		c1.747,0.38,2.887,0.608,3.267,0.608c0.836,0,1.672-0.532,2.583-1.52c0.988-1.063,1.824-1.595,2.659-1.595
		c1.216,0,2.279,0.456,3.268,1.367c0.987,1.14,1.898,2.279,2.887,3.419c0.304,0.076,2.279-0.456,2.583-0.456
		c1.14,0,2.431,1.367,3.875,4.103c1.215,2.279,1.899,3.875,1.975,4.71c0.684,1.14,1.063,9.421,1.063,24.996v9.193
		c-0.075,4.33-0.075,6.458-0.075,6.458c-0.305,2.431-1.216,4.254-2.812,5.47C419.833,68.079,417.25,68.839,413.831,68.839z
		 M419.757,15.125c-0.531-1.443-1.291-2.203-2.431-2.203c-0.684-0.076-1.748,0.608-1.976,0.608c-0.987,0-1.976-0.76-2.963-2.279
		s-2.355-2.431-4.103-2.659c-0.38,0-1.063,0.608-2.052,1.823c-0.911,1.14-1.747,1.748-2.583,1.748c-0.607,0-1.671-0.152-3.114-0.456
		c-1.444-0.304-2.508-0.456-3.191-0.456c-0.456,1.292-1.14,1.975-1.976,1.975c-0.304,0-1.291-0.684-3.038-1.975
		c-1.748-1.292-2.964-1.976-3.647-1.976c-1.215,0-1.747,2.052-1.747,3.343l0.152,4.026c0.911,0.684,1.367,2.279,1.367,4.787v1.292
		c0,0.076,0,0.304-0.076,0.532c0.152-1.52,0.836-2.279,1.976-2.279c0.836,0,1.367,0,1.747,0.076c0.152,0,0.304,0,0.532,0.076
		c0-0.684,0.531-1.52,1.671-2.659s2.052-1.671,2.735-1.671c0.228,0,1.216,0.684,2.887,2.051c0.076,0,0.456-0.304,1.14-0.987
		c0.684-0.684,1.292-0.988,1.823-0.988c0.152,0,1.064,0.684,2.812,1.975c0.911,0.684,1.671,1.064,2.279,1.064
		c0.456,0,0.835-0.608,1.215-1.824c0.38-1.292,0.685-1.899,1.064-1.899c0.455,0,0.987,0.38,1.52,1.139
		c0.531,0.684,0.835,1.064,0.911,1.064c0.229,0.076,0.836-0.228,1.747-0.836c0.532-0.38,0.912-0.532,1.064-0.532
		c0.684,0,1.443,0.684,2.279,1.975c0.835,1.596,1.595,3.115,2.431,4.635l0.152-4.938C420.44,17.405,420.213,16.265,419.757,15.125z
		 M408.893,25.61c-0.304-1.595-1.671-2.431-4.026-2.431c-0.684,0-1.747,0.152-3.039,0.456l0.304,30.541l4.103-0.228
		c1.596-0.076,2.735-0.228,3.268-0.532L408.893,25.61z M409.576,58.126c-0.987-0.684-1.519-1.063-1.595-1.292
		c-1.899-0.532-3.115-0.835-3.723-0.835c-0.304,0-0.532,0.076-0.608,0.152c0.076,0.684-0.151,1.443-0.835,2.355
		c-0.38,0.456-0.532,0.912-0.532,1.292c0,0.456,0.304,1.14,0.836,2.127c0.607,0.912,1.14,1.368,1.52,1.368s0.835-1.14,1.443-3.495
		c0.38,0,1.14,0.532,2.127,1.671c1.063,1.064,1.823,1.671,2.203,1.824c-0.076-0.38-0.151-0.684-0.151-0.76
		c0-0.608,0.531-2.203,0.531-2.811C410.792,59.19,410.412,58.658,409.576,58.126z"/>
</g>
</svg>
